<?xml version="1.0" standalone="no"?>
<!DOCTYPE svg PUBLIC "-//W3C//DTD SVG 20010904//EN"
 "http://www.w3.org/TR/2001/REC-SVG-20010904/DTD/svg10.dtd">
<svg version="1.0" xmlns="http://www.w3.org/2000/svg"
 width="512.000000pt" height="512.000000pt" viewBox="0 0 512.000000 512.000000"
 preserveAspectRatio="xMidYMid meet">
<metadata>
Created by potrace 1.14, written by Peter Selinger 2001-2017
</metadata>
<g transform="translate(0.000000,512.000000) scale(0.100000,-0.100000)"
fill="#000000" stroke="none">
<path d="M2174 5109 c-6 -10 22 -30 31 -21 5 4 5 1 0 -7 -5 -9 -4 -12 3 -7 6
4 8 14 5 24 -6 15 -5 15 10 3 9 -7 15 -17 12 -21 -3 -5 0 -10 5 -12 6 -2 -33
-4 -87 -4 -54 -1 -123 -3 -153 -4 -54 -4 -100 -23 -100 -42 0 -6 5 -6 14 1 10
9 15 8 19 -1 3 -10 -9 -14 -47 -14 -108 -2 -127 -4 -121 -13 3 -5 1 -13 -5
-16 -6 -4 -9 -1 -8 7 4 19 -37 22 -52 3 -8 -10 -9 -15 -1 -15 6 0 11 -3 11 -8
0 -4 -28 -9 -62 -11 -35 -1 -74 -4 -88 -4 -18 -2 -25 -8 -26 -24 -1 -27 0 -28
17 -6 12 14 12 16 0 8 -10 -5 -12 -4 -7 3 10 17 19 15 34 -9 8 -12 9 -18 3
-14 -6 3 -11 0 -11 -7 0 -10 -2 -10 -9 1 -6 9 -11 10 -15 2 -4 -6 -29 -11 -56
-11 -43 0 -49 -2 -43 -17 3 -10 2 -15 -2 -11 -5 5 -14 -1 -22 -12 -11 -16 -26
-20 -74 -20 -59 0 -59 0 -59 -30 0 -25 -4 -30 -25 -30 -24 0 -28 -5 -28 -40 0
-10 -11 -16 -31 -18 -90 -5 -91 -5 -88 -34 3 -25 0 -28 -27 -28 -28 0 -36 -9
-32 -33 1 -5 -3 -6 -8 -2 -6 3 -8 12 -4 20 4 11 -1 14 -18 12 -16 -3 -24 -11
-24 -23 0 -19 34 -19 1527 -22 1028 -1 1528 1 1529 8 1 5 2 16 3 23 1 7 -14
14 -34 17 -31 4 -35 8 -32 33 3 25 1 27 -35 28 -21 1 -41 1 -45 0 -5 0 -8 3
-8 9 0 5 -5 10 -11 10 -5 0 -7 -4 -4 -10 3 -5 2 -10 -3 -10 -6 0 -12 7 -16 15
-3 8 -2 15 3 15 4 0 8 7 8 15 0 14 -29 19 -93 17 -17 -1 -21 5 -20 23 0 13 5
21 9 18 5 -3 6 -12 3 -22 -4 -9 3 -5 14 9 11 14 18 18 14 9 -3 -10 -1 -20 4
-23 5 -3 10 5 10 19 0 18 -6 24 -22 23 -11 0 -40 0 -64 1 -42 1 -42 1 -38 34
3 17 3 26 0 20 -3 -7 -13 -13 -22 -13 -15 0 -15 -2 -2 -10 13 -9 13 -10 0 -10
-13 0 -13 -1 0 -10 9 -6 10 -10 3 -10 -13 0 -26 17 -29 38 -1 6 1 10 5 8 4 -3
13 -1 19 3 12 7 -48 14 -120 13 -21 0 -27 5 -25 19 2 10 7 22 12 26 4 5 5 2 1
-4 -5 -9 -2 -11 11 -7 17 6 17 6 0 -7 -16 -13 -16 -14 6 -14 17 0 23 5 22 19
-1 18 -11 20 -86 24 -46 2 -91 8 -99 13 -13 7 -12 8 2 9 12 0 15 5 11 16 -5
13 -7 13 -14 2 -5 -7 -9 -8 -9 -2 0 7 -27 12 -67 13 -59 2 -90 5 -165 13 -9 1
-14 6 -11 11 2 4 13 5 24 2 12 -4 19 -2 17 5 -2 7 4 15 12 17 13 4 13 3 0 -6
-13 -10 -13 -11 0 -12 8 -1 19 -1 23 0 5 1 6 -3 2 -9 -4 -6 1 -7 10 -3 12 4
13 8 5 13 -6 4 -11 11 -11 16 1 5 -15 9 -34 10 -25 2 -33 -1 -28 -9 4 -8 1 -7
-9 1 -11 9 -61 13 -161 15 -120 2 -141 4 -126 15 10 7 16 18 13 26 -6 16 -165
18 -176 2 -5 -7 -8 -7 -8 2 0 6 -9 12 -21 12 -11 0 -18 -4 -14 -9 3 -5 1 -13
-5 -16 -6 -4 -9 -1 -8 7 2 10 -24 14 -115 16 -95 2 -117 0 -111 -10 6 -11 5
-11 -8 0 -18 14 -68 12 -68 -3 0 -6 -3 -6 -8 1 -7 11 -161 14 -168 3z m90 -24
c9 -14 15 -25 13 -25 -2 0 -13 11 -25 25 -12 14 -18 25 -13 25 5 0 16 -11 25
-25z m56 0 c-7 -8 -16 -15 -21 -15 -5 0 -1 8 9 18 20 22 31 19 12 -3z m90 -10
c0 -5 -5 -3 -10 5 -5 8 -10 20 -10 25 0 6 5 3 10 -5 5 -8 10 -19 10 -25z m276
11 c0 -14 -5 -21 -9 -17 -4 4 -5 15 -1 24 9 24 12 21 10 -7z m79 14 c3 -5 1
-10 -4 -10 -6 0 -11 5 -11 10 0 6 2 10 4 10 3 0 8 -4 11 -10z m42 -4 c0 -8 -6
-12 -15 -9 -11 5 -11 7 0 14 7 5 13 9 14 9 0 0 1 -6 1 -14z m43 2 c0 -9 4 -8
11 2 9 13 10 13 6 0 -2 -8 -12 -14 -21 -12 -9 2 -15 -2 -14 -9 2 -6 -4 -14
-12 -16 -12 -4 -12 -3 -2 5 8 5 13 12 13 16 -3 18 0 26 9 26 6 0 10 -6 10 -12z
m-553 -4 c-3 -3 -12 -4 -19 -1 -8 3 -5 6 6 6 11 1 17 -2 13 -5z m86 -14 c3
-11 1 -18 -4 -14 -5 3 -9 12 -9 20 0 20 7 17 13 -6z m355 8 c-2 -6 -12 -12
-21 -14 -9 -1 -15 2 -11 7 3 5 10 7 15 4 5 -4 9 -1 9 4 0 6 3 11 6 11 3 0 4
-5 2 -12z m-388 -8 c0 -5 -5 -10 -11 -10 -5 0 -7 5 -4 10 3 6 8 10 11 10 2 0
4 -4 4 -10z m114 2 c3 -5 -1 -9 -9 -9 -8 0 -12 4 -9 9 3 4 7 8 9 8 2 0 6 -4 9
-8z m916 -107 c0 -2 -6 -5 -13 -8 -8 -3 -14 1 -14 8 0 7 6 11 14 8 7 -3 13 -6
13 -8z m-1640 -15 c0 -5 -2 -10 -4 -10 -3 0 -8 5 -11 10 -3 6 -1 10 4 10 6 0
11 -4 11 -10z m-280 -115 c-7 -8 -17 -15 -23 -15 -6 0 -2 7 9 15 25 19 30 19
14 0z m2508 -190 c-3 -3 -9 2 -12 12 -6 14 -5 15 5 6 7 -7 10 -15 7 -18z
m-2931 -30 c0 -6 -6 -12 -12 -12 -6 0 -12 6 -12 12 0 6 6 12 12 12 6 0 12 -6
12 -12z"/>
<path d="M2903 5111 c-4 -3 -9 -15 -11 -26 -2 -13 0 -16 5 -8 9 12 37 12 49 0
11 -11 24 -8 24 5 0 6 -3 9 -6 5 -7 -7 -34 15 -28 24 2 3 -3 6 -11 6 -8 0 -18
-3 -22 -6z"/>
<path d="M2115 5100 c-3 -5 -1 -10 4 -10 6 0 11 5 11 10 0 6 -2 10 -4 10 -3 0
-8 -4 -11 -10z"/>
<path d="M2140 5086 c0 -2 7 -6 15 -10 8 -3 15 -1 15 4 0 6 -7 10 -15 10 -8 0
-15 -2 -15 -4z"/>
<path d="M1887 5045 c2 -7 -4 -15 -14 -17 -14 -3 -15 -5 -3 -9 8 -3 24 5 36
17 l21 22 -23 0 c-14 0 -21 -5 -17 -13z"/>
<path d="M1666 4989 c2 -4 -1 -9 -8 -11 -7 -3 -4 -7 7 -12 11 -4 16 -4 12 0
-4 4 -2 12 3 19 7 8 5 12 -5 12 -8 0 -12 -4 -9 -8z"/>
<path d="M3436 4982 c-3 -5 1 -9 9 -9 8 0 12 4 9 9 -3 4 -7 8 -9 8 -2 0 -6 -4
-9 -8z"/>
<path d="M1410 4868 c0 -19 2 -20 10 -8 13 19 13 30 0 30 -5 0 -10 -10 -10
-22z"/>
<path d="M1181 4756 c-8 -10 -8 -16 1 -23 22 -16 41 -9 45 17 3 24 3 24 -12 5
-12 -16 -14 -17 -9 -2 7 20 -9 23 -25 3z m16 -11 c0 -8 -4 -12 -9 -9 -5 3 -6
10 -3 15 9 13 12 11 12 -6z"/>
<path d="M3910 4749 c0 -5 5 -7 10 -4 6 3 10 8 10 11 0 2 -4 4 -10 4 -5 0 -10
-5 -10 -11z"/>
<path d="M1076 4701 c-3 -4 4 -17 17 -27 22 -19 22 -19 4 2 -9 11 -14 24 -10
27 3 4 4 7 0 7 -3 0 -8 -4 -11 -9z"/>
<path d="M4091 4634 c0 -11 3 -14 6 -6 3 7 2 16 -1 19 -3 4 -6 -2 -5 -13z"/>
<path d="M708 4333 c4 -20 0 -23 -27 -23 -30 0 -35 -6 -32 -42 2 -14 -5 -18
-28 -18 -28 0 -31 -3 -31 -30 0 -21 -5 -30 -16 -30 -9 0 -12 -5 -8 -12 6 -10
4 -10 -7 0 -21 19 -29 14 -29 -18 0 -27 -3 -30 -30 -30 -32 0 -32 0 -33 -97 0
-13 -3 -23 -8 -23 -4 0 -6 13 -5 28 3 21 0 28 -14 28 -12 0 -16 -6 -13 -21 3
-14 2 -16 -4 -7 -7 9 -10 -1 -11 -30 -2 -43 -18 -64 -38 -48 -15 13 -24 2 -24
-31 0 -28 25 -47 34 -26 2 7 5 8 5 2 1 -7 171 -10 490 -9 296 0 488 -3 484 -9
-3 -5 4 -4 15 2 11 6 37 11 56 11 33 0 36 2 36 30 0 27 3 30 25 26 13 -3 27 0
31 5 3 6 13 8 21 5 8 -3 11 -1 8 4 -3 6 -1 10 5 10 6 0 9 4 5 9 -3 5 -1 12 4
16 6 3 8 -5 5 -20 -2 -14 0 -25 6 -25 5 0 9 3 9 8 -5 31 3 42 31 42 29 0 35 9
31 45 0 6 25 11 57 13 31 1 59 7 60 13 3 6 8 6 17 -1 10 -8 15 -8 21 1 5 8 3
9 -6 4 -8 -5 -11 -3 -8 6 3 8 11 13 17 11 7 -1 9 3 6 9 -5 8 -10 8 -18 0 -15
-15 -24 -14 -24 3 0 8 7 15 16 15 71 1 98 4 109 13 7 6 12 7 12 1 0 -21 26 -8
28 13 1 17 -2 22 -14 17 -13 -5 -13 -8 -2 -15 10 -8 9 -9 -3 -5 -9 3 -21 1
-26 -4 -5 -5 -9 0 -9 14 0 20 5 22 51 24 181 5 181 5 181 29 0 13 -3 21 -7 18
-4 -2 -10 -1 -12 3 -8 13 66 13 82 0 12 -9 13 -9 8 0 -6 9 21 13 109 15 114 3
117 4 119 26 1 13 -5 27 -13 31 -10 6 -11 10 -3 15 6 4 11 2 11 -5 0 -9 3 -9
14 0 10 8 16 9 19 1 3 -6 5 -6 3 1 -1 7 -13 13 -27 14 -29 3 -51 -4 -45 -14 3
-4 -4 -8 -15 -8 -21 -2 -24 5 -8 27 9 12 10 11 5 -5 -5 -17 -4 -18 6 -5 18 21
84 24 92 4 8 -20 -1 -35 -17 -28 -7 2 -13 -4 -14 -16 -1 -11 2 -18 7 -15 6 3
7 0 5 -7 -4 -11 10 -14 65 -14 38 0 70 4 70 9 0 5 7 4 15 -3 12 -10 18 -10 30
0 8 7 15 8 15 3 0 -12 50 -11 69 1 9 6 12 5 8 -1 -4 -7 34 -11 111 -12 64 -2
124 -3 132 -3 8 -1 20 -8 27 -17 6 -9 15 -13 19 -8 4 4 2 7 -4 7 -7 0 -12 5
-12 11 0 8 4 8 13 0 10 -8 17 -7 25 1 8 8 12 9 12 1 0 -6 -7 -13 -15 -17 -8
-3 -15 -13 -15 -23 0 -15 2 -16 10 -3 6 10 10 11 10 3 0 -7 4 -13 10 -13 5 0
7 8 4 18 -5 16 -5 16 9 0 10 -12 31 -18 75 -19 33 -1 60 -5 60 -8 -1 -3 1 -16
6 -28 8 -24 46 -32 46 -10 0 9 2 9 8 0 4 -7 30 -14 57 -16 47 -3 50 -5 48 -30
-2 -24 1 -27 31 -27 35 0 50 -17 40 -44 -4 -10 3 -14 23 -14 82 2 93 -1 93
-26 0 -19 5 -23 28 -24 46 0 52 -2 52 -13 0 -5 -4 -8 -8 -5 -4 2 -8 -4 -9 -14
-1 -11 2 -22 7 -25 11 -7 33 32 26 44 -3 4 1 8 7 8 16 0 18 -46 3 -49 -6 0 9
-4 34 -7 35 -5 45 -10 44 -23 -1 -10 2 -15 7 -12 5 3 9 1 9 -5 0 -5 -6 -11
-12 -14 -7 -3 -3 -4 8 -4 15 1 20 6 16 15 -4 12 -2 12 19 0 25 -15 49 -18 49
-5 0 38 -2 41 -10 20 -12 -30 -23 -30 -15 0 3 12 3 18 -2 12 -12 -15 -33 -17
-33 -3 0 10 -2 10 -9 0 -7 -11 -9 -11 -14 0 -4 12 71 15 492 16 273 1 507 2
521 2 20 1 25 7 25 29 1 19 -5 27 -17 28 -19 2 -24 -12 -8 -22 6 -3 10 -10 10
-16 0 -9 -37 21 -37 31 -1 3 -1 17 -2 33 -1 23 -5 27 -31 27 -26 0 -30 4 -31
30 -2 46 -3 50 -14 49 -5 -1 -9 -5 -8 -9 2 -5 -6 -8 -16 -7 -10 0 -18 8 -18
17 0 42 -4 51 -15 44 -9 -5 -9 -2 1 9 8 10 9 17 3 17 -6 0 -13 -4 -17 -10 -3
-5 -13 -6 -21 -3 -11 4 -12 8 -4 13 9 5 9 9 1 14 -6 4 -11 23 -11 42 0 31 -2
34 -30 34 -27 0 -30 3 -30 30 0 25 -4 30 -25 30 -14 0 -36 9 -48 21 -17 15
-18 19 -4 14 9 -4 17 -3 17 2 0 4 -810 8 -1853 8 l-1853 0 4 -22z m64 4 c4 -7
8 -16 8 -22 -1 -5 -5 -2 -11 7 -5 9 -16 15 -24 12 -8 -4 -12 -11 -8 -18 3 -6
2 -7 -2 -3 -5 4 -10 13 -11 20 -2 17 38 20 48 4z m58 4 c-1 -21 -16 -27 -32
-12 -15 15 -14 16 8 17 13 1 24 -1 24 -5z m62 -4 c4 -7 8 -16 8 -22 -1 -5 -5
-2 -11 7 -5 9 -16 15 -24 12 -8 -4 -13 -9 -10 -13 2 -4 -2 -8 -10 -8 -10 0
-12 4 -5 12 5 7 8 14 5 16 -2 3 6 6 18 6 12 1 25 -3 29 -10z m53 -13 c8 -1 11
4 8 12 -3 8 -1 14 4 14 12 0 33 -22 33 -34 0 -5 -7 -1 -15 10 -11 14 -13 14
-9 3 4 -13 -1 -16 -25 -15 -16 0 -28 3 -25 5 2 2 -2 11 -9 20 -11 14 -10 15 7
1 10 -8 24 -15 31 -16z m113 13 c6 -5 12 -14 12 -20 0 -7 -4 -6 -10 3 -8 13
-10 13 -10 1 0 -11 -4 -9 -15 5 -14 18 -15 18 -8 0 6 -18 5 -18 -15 0 -12 10
-22 19 -22 20 0 5 57 -3 68 -9z m80 -7 c7 -12 7 -17 -4 -17 -7 0 -11 4 -9 8 3
4 -2 9 -10 12 -10 4 -12 1 -8 -10 5 -12 2 -12 -15 3 -12 10 -22 19 -22 19 0 1
13 1 29 1 16 0 33 -7 39 -16z m52 11 c-1 -21 -16 -27 -32 -12 -15 15 -14 16 8
17 13 1 24 -1 24 -5z m62 -4 c4 -7 8 -16 8 -22 -1 -5 -5 -2 -11 7 -5 9 -16 15
-24 12 -8 -4 -13 -9 -10 -13 2 -4 -2 -8 -10 -8 -10 0 -12 4 -5 12 5 7 8 14 5
16 -2 3 6 6 18 6 12 1 25 -3 29 -10z m58 4 c-1 -21 -16 -27 -32 -12 -15 15
-14 16 8 17 13 1 24 -1 24 -5z m62 -4 c4 -7 8 -16 8 -22 -1 -5 -5 -2 -11 7 -5
9 -16 15 -24 12 -8 -4 -13 -9 -10 -13 2 -4 -2 -8 -10 -8 -10 0 -12 4 -5 12 5
7 8 14 5 16 -2 3 6 6 18 6 12 1 25 -3 29 -10z m45 -8 c2 -16 0 -17 -18 -1 -10
9 -19 17 -19 17 0 0 8 1 18 1 10 0 19 -8 19 -17z m53 -13 c0 -6 -5 -4 -10 4
-6 10 -10 11 -10 3 0 -7 -4 -13 -9 -13 -8 0 -8 8 -2 39 2 8 31 -22 31 -33z
m68 21 c6 -5 12 -14 12 -20 0 -7 -4 -6 -10 3 -8 13 -10 13 -10 1 0 -11 -4 -9
-15 5 -14 18 -15 18 -8 0 6 -18 5 -18 -15 0 -12 10 -22 19 -22 20 0 5 57 -3
68 -9z m76 -3 c3 -8 0 -16 -6 -20 -6 -4 -8 -3 -5 3 4 6 0 13 -8 16 -10 4 -12
1 -8 -10 5 -12 2 -12 -15 3 -12 10 -22 19 -22 19 0 1 13 1 30 1 16 0 31 -5 34
-12z m56 7 c-1 -21 -16 -27 -32 -12 -15 15 -14 16 8 17 13 1 24 -1 24 -5z m62
-4 c4 -7 8 -16 8 -22 -1 -5 -5 -2 -11 7 -5 9 -16 15 -24 12 -8 -4 -13 -9 -10
-13 2 -4 -2 -8 -10 -8 -10 0 -12 4 -5 12 5 7 8 14 5 16 -2 3 6 6 18 6 12 1 25
-3 29 -10z m58 4 c-1 -21 -16 -27 -32 -12 -15 15 -14 16 8 17 13 1 24 -1 24
-5z m62 -4 c4 -7 8 -16 8 -22 -1 -5 -5 -2 -11 7 -5 9 -16 15 -24 12 -8 -4 -13
-9 -10 -13 2 -4 -2 -8 -10 -8 -10 0 -12 4 -5 12 5 7 8 14 5 16 -2 3 6 6 18 6
12 1 25 -3 29 -10z m53 -5 c7 18 57 21 67 4 14 -21 8 -30 -8 -10 -8 10 -13 14
-10 7 4 -6 1 -15 -5 -19 -7 -4 -9 -3 -6 3 4 6 0 13 -8 17 -8 3 -14 0 -12 -6 1
-6 -10 -12 -26 -13 -15 -1 -25 0 -22 3 3 3 -1 12 -7 21 -8 10 -4 9 9 -3 19
-16 23 -17 28 -4z m121 2 c5 14 9 15 15 4 5 -7 9 -8 9 -3 0 6 17 11 38 12 35
1 52 -10 52 -32 -1 -5 -5 -2 -11 7 -5 9 -16 15 -24 12 -8 -4 -13 -9 -10 -13 2
-4 -2 -8 -10 -8 -11 0 -12 4 -4 14 13 14 9 16 -15 7 -9 -3 -14 -9 -12 -13 3
-4 -11 -7 -29 -7 -19 0 -32 2 -30 5 3 2 -1 11 -7 20 -8 10 -4 9 9 -3 21 -17
23 -18 29 -2z m152 0 c6 -1 12 1 12 5 0 4 6 8 14 8 8 0 12 -6 9 -13 -3 -8 2
-11 14 -9 10 2 20 4 23 4 3 1 -1 5 -9 10 -9 6 -4 9 15 9 28 0 44 -12 44 -32 0
-6 -7 -1 -16 10 -8 10 -13 14 -10 7 4 -6 1 -15 -5 -19 -8 -4 -9 -3 -5 4 8 13
-6 16 -18 5 -4 -4 -27 -8 -51 -8 -25 -1 -42 1 -40 4 3 2 -1 11 -8 19 -10 13
-9 14 3 7 8 -5 21 -10 28 -11z m152 -15 c0 -5 -5 -9 -12 -9 -6 0 -8 3 -5 7 4
3 1 13 -6 22 -11 14 -10 14 6 2 9 -7 17 -17 17 -22z m162 16 c5 -6 8 -4 8 5 0
13 2 13 9 1 12 -19 44 -24 37 -6 -6 16 19 14 36 -3 8 -8 8 -15 -2 -27 -17 -20
-1 -19 22 1 16 16 17 18 1 29 -14 11 -12 12 14 11 37 -1 100 -61 75 -71 -8 -3
-20 -1 -27 5 -8 6 -15 6 -23 -2 -7 -7 -12 -8 -12 -4 0 5 -7 3 -15 -4 -12 -10
-18 -10 -29 -1 -9 7 -17 8 -20 2 -8 -13 -42 -6 -38 8 3 14 -15 15 -20 1 -4
-14 -46 -21 -53 -9 -4 5 1 19 9 31 9 12 16 18 16 14 0 -5 3 -6 7 -3 3 4 -2 14
-13 22 -13 11 -14 14 -4 13 8 -2 18 -7 22 -13z m240 0 c13 -18 8 -25 -18 -25
-14 0 -23 4 -19 10 3 5 13 7 23 4 14 -5 14 -4 3 4 -8 6 -20 8 -27 5 -6 -2 -15
0 -18 5 -8 13 47 10 56 -3z m54 -2 c-4 -9 -1 -13 6 -10 7 2 12 9 11 14 -3 17
42 13 53 -5 10 -16 6 -17 -47 -18 -51 -1 -57 1 -41 12 15 12 15 13 1 8 -10 -3
-19 -2 -22 3 -3 4 6 9 20 9 18 2 23 -2 19 -13z m124 8 c-1 -21 -16 -27 -32
-12 -15 15 -14 16 8 17 13 1 24 -1 24 -5z m62 -4 c4 -7 8 -16 8 -22 -1 -5 -5
-2 -11 7 -5 9 -16 15 -24 12 -8 -4 -13 -9 -10 -13 2 -4 -2 -8 -10 -8 -10 0
-12 4 -5 12 5 7 8 14 5 16 -2 3 6 6 18 6 12 1 25 -3 29 -10z m45 -8 c2 -16 0
-17 -18 -1 -10 9 -19 17 -19 17 0 0 8 1 18 1 10 0 19 -8 19 -17z m53 -13 c0
-6 -5 -4 -10 4 -6 10 -10 11 -10 3 0 -7 -4 -13 -9 -13 -8 0 -8 8 -2 39 2 8 31
-22 31 -33z m68 21 c6 -5 12 -14 12 -20 0 -7 -4 -6 -10 3 -8 13 -10 13 -10 1
0 -11 -4 -9 -15 5 -14 18 -15 18 -8 0 6 -18 5 -18 -15 0 -12 10 -22 19 -22 20
0 5 57 -3 68 -9z m80 0 c6 -5 12 -14 12 -20 0 -7 -4 -6 -10 3 -8 13 -10 13
-10 1 0 -11 -4 -9 -15 5 -14 18 -15 18 -8 0 6 -18 5 -18 -15 0 -12 10 -22 19
-22 20 0 5 57 -3 68 -9z m80 0 c6 -5 12 -14 12 -20 0 -7 -4 -6 -10 3 -8 13
-10 13 -10 1 0 -11 -4 -9 -15 5 -14 18 -15 18 -8 0 6 -18 5 -18 -15 0 -12 10
-22 19 -22 20 0 5 57 -3 68 -9z m80 -7 c7 -12 7 -17 -4 -17 -7 0 -11 4 -9 8 3
4 -2 9 -10 12 -10 4 -12 1 -8 -10 5 -12 2 -12 -15 3 -12 10 -22 19 -22 19 0 1
13 1 29 1 16 0 33 -7 39 -16z m52 11 c-1 -21 -16 -27 -32 -12 -15 15 -14 16 8
17 13 1 24 -1 24 -5z m62 -4 c4 -7 8 -16 8 -22 -1 -5 -5 -2 -11 7 -5 9 -16 15
-24 12 -8 -4 -13 -9 -10 -13 2 -4 -2 -8 -10 -8 -10 0 -12 4 -5 12 5 7 8 14 5
16 -2 3 6 6 18 6 12 1 25 -3 29 -10z m58 4 c-1 -21 -16 -27 -32 -12 -15 15
-14 16 8 17 13 1 24 -1 24 -5z m62 -4 c4 -7 8 -16 8 -22 -1 -5 -5 -2 -11 7 -5
9 -16 15 -24 12 -8 -4 -13 -9 -10 -13 2 -4 -2 -8 -10 -8 -10 0 -12 4 -5 12 5
7 8 14 5 16 -2 3 6 6 18 6 12 1 25 -3 29 -10z m45 -8 c2 -16 0 -17 -18 -1 -10
9 -19 17 -19 17 0 0 8 1 18 1 10 0 19 -8 19 -17z m53 -13 c0 -6 -5 -4 -10 4
-6 10 -10 11 -10 3 0 -7 -4 -13 -9 -13 -8 0 -8 8 -2 39 2 8 31 -22 31 -33z
m68 21 c6 -5 12 -14 12 -20 0 -7 -4 -6 -10 3 -8 13 -10 13 -10 1 0 -11 -4 -9
-15 5 -14 18 -15 18 -8 0 6 -18 5 -18 -15 0 -12 10 -22 19 -22 20 0 5 57 -3
68 -9z m114 -1 c14 -21 8 -30 -8 -10 -8 10 -13 14 -10 7 4 -6 1 -15 -5 -19 -8
-5 -9 -3 -5 5 6 8 2 11 -10 9 -11 -2 -21 -6 -24 -9 -3 -3 -13 1 -22 10 -16 16
-14 17 30 17 26 1 50 -4 54 -10z m54 -2 c5 14 9 15 15 4 5 -7 9 -8 9 -3 0 6
17 11 38 12 35 1 52 -10 52 -32 -1 -5 -5 -2 -11 7 -5 9 -16 15 -24 12 -8 -4
-13 -9 -10 -13 2 -4 -2 -8 -10 -8 -11 0 -12 4 -4 14 13 14 9 16 -15 7 -9 -3
-14 -9 -12 -13 3 -4 -11 -7 -29 -7 -19 0 -32 2 -30 5 3 2 -1 11 -7 20 -8 10
-4 9 9 -3 21 -17 23 -18 29 -2z m152 0 c6 -1 12 1 12 5 0 4 6 8 14 8 8 0 12
-6 9 -13 -3 -8 2 -11 14 -9 10 2 20 4 23 4 3 1 -1 5 -9 10 -9 6 -4 9 15 9 28
0 44 -12 44 -32 0 -6 -7 -1 -16 10 -8 10 -13 14 -10 7 4 -6 1 -15 -5 -19 -8
-4 -9 -3 -5 4 8 13 -6 16 -18 5 -4 -4 -27 -8 -51 -8 -25 -1 -42 1 -40 4 3 2
-1 11 -8 19 -10 13 -9 14 3 7 8 -5 21 -10 28 -11z m168 0 c5 14 9 15 15 4 5
-7 9 -8 9 -3 0 6 17 11 38 12 35 1 52 -10 52 -32 -1 -5 -5 -2 -11 7 -5 9 -16
15 -24 12 -8 -4 -13 -9 -10 -13 2 -4 -2 -8 -10 -8 -11 0 -12 4 -4 14 13 14 9
16 -15 7 -9 -3 -14 -9 -12 -13 3 -4 -11 -7 -29 -7 -19 0 -32 2 -30 5 3 2 -1
11 -7 20 -8 10 -4 9 9 -3 21 -17 23 -18 29 -2z m-1910 -56 c3 -4 -1 -5 -10 -4
-8 1 -18 5 -22 8 -3 4 1 5 10 4 8 -1 18 -5 22 -8z m-263 -72 c-9 -5 -19 -4
-26 4 -9 8 -7 10 8 5 19 -6 19 -6 3 8 -27 22 -21 30 6 10 20 -15 22 -19 9 -27z
m1110 -31 c-3 -9 -8 -14 -10 -11 -3 3 -2 9 2 15 9 16 15 13 8 -4z m21 -10 c-9
-14 -18 -25 -21 -25 -5 0 5 18 20 38 17 22 18 13 1 -13z m243 -128 c-2 -6 -14
-11 -27 -12 -21 -2 -22 -1 -5 12 17 12 17 13 2 13 -9 0 -17 4 -17 10 0 6 10 5
25 -2 14 -6 24 -16 22 -21z m-3023 -11 c-3 -9 -10 -16 -15 -16 -5 0 -4 9 3 20
14 22 21 20 12 -4z m1097 -39 c-10 -9 -11 -8 -5 6 3 10 9 15 12 12 3 -3 0 -11
-7 -18z m2072 -62 c-3 -9 -8 -14 -10 -11 -3 3 -2 9 2 15 9 16 15 13 8 -4z
m1117 -5 c0 -5 -2 -10 -4 -10 -3 0 -8 5 -11 10 -3 6 -1 10 4 10 6 0 11 -4 11
-10z"/>
<path d="M2565 4330 c4 -11 -2 -16 -25 -16 -16 -1 -30 2 -30 7 0 4 -12 -3 -27
-17 -14 -13 -23 -27 -20 -31 4 -3 7 -1 7 5 0 7 5 12 11 12 5 0 7 -6 3 -12 -4
-7 2 -5 14 5 20 18 48 15 37 -3 -3 -4 3 -7 12 -6 10 2 18 7 18 12 0 5 4 15 9
22 5 8 4 18 -3 25 -9 9 -11 8 -6 -3z m-8 -37 c0 -9 -4 -10 -14 -2 -7 6 -13 12
-13 14 0 1 6 2 13 2 8 0 14 -6 14 -14z"/>
<path d="M2624 4332 c3 -3 -4 -16 -16 -29 -23 -25 -18 -44 7 -23 8 7 15 9 15
5 0 -4 6 -2 14 4 10 8 16 9 21 1 3 -5 12 -10 18 -10 7 1 2 9 -11 20 -13 10
-22 22 -20 26 2 4 -5 8 -15 10 -11 1 -16 0 -13 -4z m22 -19 c-2 -10 -7 -18
-12 -18 -5 0 -16 -4 -24 -9 -8 -5 -4 3 9 17 29 32 30 32 27 10z"/>
<path d="M2820 4330 c-12 -7 -10 -9 7 -7 12 0 19 5 17 9 -6 10 -6 10 -24 -2z"/>
<path d="M2150 4229 c0 -5 5 -7 10 -4 6 3 10 8 10 11 0 2 -4 4 -10 4 -5 0 -10
-5 -10 -11z"/>
<path d="M2950 4234 c0 -5 6 -18 13 -29 12 -15 15 -16 22 -4 5 8 4 10 0 6 -5
-4 -15 3 -22 15 -7 13 -12 18 -13 12z"/>
<path d="M2936 4207 c3 -10 9 -15 12 -12 3 3 0 11 -7 18 -10 9 -11 8 -5 -6z"/>
<path d="M2135 4200 c3 -5 8 -10 11 -10 2 0 4 5 4 10 0 6 -5 10 -11 10 -5 0
-7 -4 -4 -10z"/>
<path d="M4553 4169 c1 -13 5 -14 19 -5 23 14 23 25 -1 23 -12 -1 -19 -8 -18
-18z"/>
<path d="M3145 4160 c3 -5 11 -10 16 -10 6 0 7 5 4 10 -3 6 -11 10 -16 10 -6
0 -7 -4 -4 -10z"/>
<path d="M4602 4114 c2 -17 5 -19 24 -10 15 7 19 13 11 18 -7 4 -14 2 -16 -3
-2 -7 -6 -6 -12 2 -6 10 -8 8 -7 -7z"/>
<path d="M3309 4116 c0 -1 -2 -12 -5 -26 -3 -19 -2 -21 6 -10 8 12 10 13 10 1
0 -19 10 -9 14 16 3 12 -1 20 -10 20 -8 0 -14 -1 -15 -1z"/>
<path d="M1667 4024 c3 -7 9 -14 14 -14 14 0 10 17 -5 23 -10 4 -13 1 -9 -9z"/>
<path d="M1490 3937 c0 -2 6 -10 14 -16 11 -9 16 -9 22 1 4 7 4 10 -1 6 -4 -4
-14 -3 -22 3 -7 6 -13 9 -13 6z"/>
<path d="M353 3870 c-2 -24 13 -35 20 -16 3 8 0 19 -7 25 -8 7 -12 5 -13 -9z"/>
<path d="M394 3875 c13 -10 12 -12 -1 -21 -13 -8 -12 -10 5 -10 11 0 18 4 16
8 -8 13 11 9 26 -4 12 -11 12 -10 1 5 -14 18 -12 21 13 11 9 -3 14 -9 12 -13
-3 -4 4 -7 15 -7 19 0 19 1 3 13 -10 7 -12 13 -6 13 7 0 12 4 12 8 0 5 -7 9
-15 9 -8 0 -12 -4 -9 -9 3 -4 0 -8 -5 -8 -6 0 -11 4 -11 8 0 5 -16 8 -35 8
-28 -1 -32 -3 -21 -11z"/>
<path d="M505 3872 c2 -9 4 -21 4 -25 1 -5 6 -5 12 -1 8 4 7 9 -2 16 -11 7 -9
8 4 4 10 -3 21 -6 23 -6 3 0 3 -4 0 -8 -2 -4 8 -8 24 -7 15 0 26 3 24 6 -2 4
3 10 12 13 12 5 15 2 10 -11 -6 -15 -5 -16 5 -5 14 13 33 17 25 4 -3 -5 1 -9
9 -9 8 0 16 6 19 13 3 8 12 11 21 8 8 -3 13 -9 11 -13 -3 -4 4 -7 15 -7 19 0
19 1 3 13 -10 7 -12 13 -6 13 7 0 12 4 12 8 0 5 -7 9 -15 9 -8 0 -12 -4 -9 -9
3 -4 0 -8 -5 -8 -6 0 -11 6 -11 13 0 9 -3 8 -9 -2 -5 -7 -11 -9 -13 -5 -3 5
-3 3 -1 -5 2 -9 -2 -11 -13 -7 -8 3 -20 6 -25 6 -6 0 -8 4 -5 8 3 5 -1 9 -9 9
-8 0 -12 -4 -9 -9 3 -4 1 -8 -5 -8 -5 0 -11 3 -14 8 -2 4 -2 2 -1 -5 2 -6 -6
-11 -17 -10 -10 1 -19 8 -20 17 0 10 -2 11 -6 3 -3 -9 -10 -10 -23 -3 -15 8
-18 6 -15 -8z"/>
<path d="M745 3872 c2 -9 4 -21 4 -25 1 -5 6 -5 12 -1 8 4 7 9 -2 16 -11 7 -9
8 4 4 10 -3 21 -6 23 -6 3 0 3 -4 0 -8 -2 -4 8 -8 24 -7 15 0 26 3 24 6 -2 4
3 10 12 13 12 5 15 2 10 -11 -6 -15 -5 -16 5 -5 14 13 33 17 25 4 -3 -5 1 -9
9 -9 8 0 16 6 19 13 3 8 12 11 21 8 8 -3 13 -9 11 -13 -3 -4 4 -7 15 -7 19 0
19 1 3 13 -10 7 -12 13 -6 13 7 0 12 4 12 8 0 5 -7 9 -15 9 -8 0 -12 -4 -9 -9
3 -4 0 -8 -5 -8 -6 0 -11 6 -11 13 0 9 -3 8 -9 -2 -5 -7 -11 -9 -13 -5 -3 5
-3 3 -1 -5 2 -9 -2 -11 -13 -7 -8 3 -20 6 -25 6 -6 0 -8 4 -5 8 3 5 -1 9 -9 9
-8 0 -12 -4 -9 -9 3 -4 1 -8 -5 -8 -5 0 -11 3 -14 8 -2 4 -2 2 -1 -5 2 -6 -6
-11 -17 -10 -10 1 -19 8 -20 17 0 10 -2 11 -6 3 -3 -9 -10 -10 -23 -3 -15 8
-18 6 -15 -8z"/>
<path d="M985 3872 c2 -9 4 -21 4 -25 1 -5 6 -5 12 -1 8 4 7 9 -2 16 -11 7 -9
8 4 4 10 -3 21 -6 23 -6 3 0 3 -4 0 -8 -2 -4 8 -8 24 -7 15 0 26 3 24 6 -2 4
3 10 12 13 12 5 15 2 10 -11 -6 -15 -5 -16 5 -5 14 13 33 17 25 4 -3 -5 1 -9
9 -9 8 0 16 6 19 13 3 8 12 11 21 8 8 -3 13 -9 11 -13 -3 -4 4 -7 15 -7 19 0
19 1 3 13 -10 7 -12 13 -6 13 7 0 12 4 12 8 0 5 -7 9 -15 9 -8 0 -12 -4 -9 -9
3 -4 0 -8 -5 -8 -6 0 -11 6 -11 13 0 9 -3 8 -9 -2 -5 -7 -11 -9 -13 -5 -3 5
-3 3 -1 -5 2 -9 -2 -11 -13 -7 -8 3 -20 6 -25 6 -6 0 -8 4 -5 8 3 5 -1 9 -9 9
-8 0 -12 -4 -9 -9 3 -4 1 -8 -5 -8 -5 0 -11 3 -14 8 -2 4 -2 2 -1 -5 2 -6 -6
-11 -17 -10 -10 1 -19 8 -20 17 0 10 -2 11 -6 3 -3 -9 -10 -10 -23 -3 -15 8
-18 6 -15 -8z"/>
<path d="M1225 3872 c2 -9 4 -21 4 -25 1 -5 6 -5 12 -1 8 4 7 9 -2 16 -11 7
-9 8 4 4 10 -3 21 -6 23 -6 3 0 2 -6 -2 -12 -5 -9 -2 -9 9 1 9 7 17 9 17 4 0
-5 7 -10 15 -10 8 0 12 4 9 9 -8 12 10 10 26 -4 11 -10 11 -9 0 6 -14 18 -13
19 2 13 11 -4 15 -2 12 6 -2 7 -16 14 -30 15 -19 1 -25 -2 -21 -12 4 -10 -1
-14 -14 -13 -10 1 -19 8 -20 17 0 10 -2 11 -6 3 -3 -9 -10 -10 -23 -3 -15 8
-18 6 -15 -8z"/>
<path d="M1386 3874 c-11 -8 -16 -14 -10 -14 13 0 39 18 34 24 -3 2 -14 -2
-24 -10z"/>
<path d="M3821 3883 c-1 -6 4 -15 9 -18 6 -4 8 -10 6 -14 -3 -4 2 -8 10 -8 9
0 11 4 5 10 -5 5 -7 17 -4 26 4 13 3 13 -5 2 -8 -11 -10 -11 -15 0 -3 9 -6 10
-6 2z"/>
<path d="M3865 3872 c2 -9 4 -21 4 -25 1 -5 6 -5 12 -1 8 4 7 9 -2 16 -11 7
-9 8 4 4 10 -3 21 -6 23 -6 3 0 3 -4 0 -8 -2 -4 8 -8 24 -7 15 0 26 3 24 6 -2
4 3 10 12 13 12 5 15 2 10 -11 -6 -15 -5 -16 5 -5 14 13 33 17 25 4 -3 -5 1
-9 9 -9 8 0 16 6 19 13 3 8 12 11 21 8 8 -3 13 -9 11 -13 -3 -4 4 -7 15 -7 19
0 19 1 3 13 -10 7 -12 13 -6 13 7 0 12 4 12 8 0 5 -7 9 -15 9 -8 0 -12 -4 -9
-9 3 -4 0 -8 -5 -8 -6 0 -11 6 -11 13 0 9 -3 8 -9 -2 -5 -7 -11 -9 -13 -5 -3
5 -3 3 -1 -5 2 -9 -2 -11 -13 -7 -8 3 -20 6 -25 6 -6 0 -8 4 -5 8 3 5 -1 9 -9
9 -8 0 -12 -4 -9 -9 3 -4 1 -8 -5 -8 -5 0 -11 3 -14 8 -2 4 -2 2 -1 -5 2 -6
-6 -11 -17 -10 -10 1 -19 8 -20 17 0 10 -2 11 -6 3 -3 -9 -10 -10 -23 -3 -15
8 -18 6 -15 -8z"/>
<path d="M4105 3872 c2 -9 4 -21 4 -25 1 -5 6 -5 12 -1 8 4 7 9 -2 16 -11 7
-9 8 4 4 10 -3 21 -6 23 -6 3 0 3 -4 0 -8 -2 -4 8 -8 24 -7 15 0 26 3 24 6 -2
4 3 10 12 13 12 5 15 2 10 -11 -6 -15 -5 -16 5 -5 14 13 33 17 25 4 -3 -5 1
-9 9 -9 8 0 16 6 19 13 3 8 12 11 21 8 8 -3 13 -9 11 -13 -3 -4 4 -7 15 -7 19
0 19 1 3 13 -10 7 -12 13 -6 13 7 0 12 4 12 8 0 5 -7 9 -15 9 -8 0 -12 -4 -9
-9 3 -4 0 -8 -5 -8 -6 0 -11 6 -11 13 0 9 -3 8 -9 -2 -5 -7 -11 -9 -13 -5 -3
5 -3 3 -1 -5 2 -9 -2 -11 -13 -7 -8 3 -20 6 -25 6 -6 0 -8 4 -5 8 3 5 -1 9 -9
9 -8 0 -12 -4 -9 -9 3 -4 1 -8 -5 -8 -5 0 -11 3 -14 8 -2 4 -2 2 -1 -5 2 -6
-6 -11 -17 -10 -10 1 -19 8 -20 17 0 10 -2 11 -6 3 -3 -9 -10 -10 -23 -3 -15
8 -18 6 -15 -8z"/>
<path d="M4345 3872 c2 -9 4 -21 4 -25 1 -5 6 -5 12 -1 8 4 7 9 -2 16 -11 7
-9 8 4 4 10 -3 21 -6 23 -6 3 0 3 -4 0 -8 -2 -4 8 -8 24 -7 15 0 26 3 24 6 -2
4 3 10 12 13 12 5 15 2 10 -11 -6 -15 -5 -16 5 -5 14 13 33 17 25 4 -3 -5 1
-9 9 -9 8 0 16 6 19 13 3 8 12 11 21 8 8 -3 13 -9 11 -13 -3 -4 4 -7 15 -7 19
0 19 1 3 13 -10 7 -12 13 -6 13 7 0 12 4 12 8 0 5 -7 9 -15 9 -8 0 -12 -4 -9
-9 3 -4 0 -8 -5 -8 -6 0 -11 6 -11 13 0 9 -3 8 -9 -2 -5 -7 -11 -9 -13 -5 -3
5 -3 3 -1 -5 2 -9 -2 -11 -13 -7 -8 3 -20 6 -25 6 -6 0 -8 4 -5 8 3 5 -1 9 -9
9 -8 0 -12 -4 -9 -9 3 -4 1 -8 -5 -8 -5 0 -11 3 -14 8 -2 4 -2 2 -1 -5 2 -6
-6 -11 -17 -10 -10 1 -19 8 -20 17 0 10 -2 11 -6 3 -3 -9 -10 -10 -23 -3 -15
8 -18 6 -15 -8z"/>
<path d="M4585 3872 c2 -9 4 -21 4 -25 1 -5 6 -5 12 -1 8 4 7 9 -2 16 -11 7
-9 8 4 4 10 -3 21 -6 23 -6 3 0 3 -4 0 -8 -2 -4 4 -8 14 -8 10 0 17 3 14 7 -2
4 0 9 6 11 6 2 6 8 0 18 -8 13 -10 12 -10 -2 0 -10 -4 -18 -10 -18 -5 0 -10 8
-11 18 0 10 -3 12 -6 5 -3 -9 -10 -10 -23 -3 -15 8 -18 6 -15 -8z"/>
<path d="M4676 3881 c-4 -6 -1 -11 6 -11 10 0 10 -2 -1 -9 -8 -5 -9 -11 -3
-15 13 -8 22 17 12 33 -5 9 -10 10 -14 2z"/>
<path d="M4708 3878 c14 -13 62 -13 62 0 0 5 -16 8 -35 8 -19 0 -31 -4 -27 -8z"/>
<path d="M4706 3852 c-2 -4 4 -8 14 -8 10 0 16 4 14 8 -3 4 -9 8 -14 8 -5 0
-11 -4 -14 -8z"/>
<path d="M234 3646 c0 -13 5 -22 9 -19 5 3 6 12 3 22 -5 13 -3 13 8 -2 8 -10
16 -14 19 -10 8 12 -5 27 -24 31 -12 2 -16 -4 -15 -22z"/>
<path d="M289 3664 c-1 -2 -2 -7 -3 -11 -1 -5 -5 -14 -9 -20 -5 -8 -3 -13 4
-13 7 0 9 -3 6 -6 -4 -4 -13 -1 -22 6 -12 10 -15 10 -15 0 0 -8 -9 -11 -24 -8
-38 7 -47 -4 -48 -63 -2 -46 -5 -55 -21 -56 -18 -2 -18 -1 -2 17 12 13 13 20
5 25 -7 4 -17 1 -24 -6 -6 -8 -7 -11 -2 -6 22 16 28 5 9 -15 -19 -22 -24 -50
-27 -165 0 -20 -4 -29 -9 -24 -5 5 -15 8 -21 7 -6 -2 -8 -1 -3 1 4 3 5 9 1 14
-13 22 -20 4 -21 -65 l-2 -74 429 1 c236 0 427 3 425 8 -3 4 2 9 10 13 8 3 15
11 14 18 0 10 -2 10 -6 1 -2 -7 -9 -13 -14 -13 -6 0 -7 5 -4 10 3 6 1 10 -5
10 -7 0 -10 -6 -7 -14 3 -8 0 -16 -7 -19 -7 -3 -12 4 -12 17 0 16 7 23 25 24
13 1 25 3 27 5 1 1 4 25 7 52 3 28 6 51 6 52 1 1 8 0 16 -1 19 -3 23 -12 11
-23 -5 -5 -6 -3 -2 4 5 9 2 11 -9 6 -12 -4 -13 -8 -5 -13 9 -6 9 -9 -1 -13 -8
-3 -3 -4 11 -3 22 3 25 8 28 51 2 27 10 54 17 62 16 15 29 18 20 3 -3 -5 0
-10 8 -10 9 0 14 11 14 30 0 18 7 36 19 45 15 12 15 14 2 9 -12 -4 -16 0 -14
13 2 11 13 19 28 21 21 3 27 9 30 37 3 28 1 34 -13 32 -10 -1 -18 2 -18 7 1 5
-5 13 -13 17 -7 5 -8 9 -3 10 58 5 69 19 12 16 -25 -1 -43 -5 -40 -10 2 -4 7
-5 11 -3 4 2 8 -6 8 -19 2 -19 -3 -22 -35 -21 -20 1 -47 10 -61 20 -14 10 -17
16 -8 13 10 -4 20 -2 23 3 3 5 14 7 25 5 11 -2 20 0 20 4 0 4 -78 7 -172 7
-159 -1 -185 -5 -161 -26 4 -3 3 0 0 7 -6 10 -1 11 32 4 2 -1 -3 -8 -10 -18
-12 -14 -12 -16 1 -11 8 3 14 12 14 20 -1 11 9 14 35 14 20 -1 42 -5 49 -9 6
-5 12 -4 12 2 0 21 35 7 36 -15 1 -16 -3 -22 -17 -21 -10 1 -19 5 -19 10 0 5
-6 5 -12 0 -16 -13 -48 -13 -48 -1 0 5 -6 6 -12 1 -22 -13 -42 -12 -59 3 -11
10 -19 12 -24 5 -3 -6 -1 -11 6 -11 7 0 9 -3 6 -6 -4 -4 -13 -1 -22 6 -8 7
-15 8 -15 3 0 -5 -9 -9 -19 -10 -14 -1 -18 5 -17 21 1 25 34 33 43 10 3 -7 9
-12 14 -9 4 3 6 11 3 18 -5 14 -164 18 -164 5 0 -5 0 -13 0 -19 0 -5 5 -7 11
-3 8 5 8 9 -1 14 -9 5 67 6 89 1 2 -1 -2 -7 -8 -14 -6 -8 -7 -18 -3 -22 4 -5
-6 1 -22 13 -15 12 -33 19 -39 15 -5 -3 1 -12 14 -19 24 -13 24 -13 2 -11 -13
1 -23 5 -23 10 0 4 -6 5 -12 0 -23 -14 -40 -13 -28 2 25 30 2 40 -100 42 -55
0 -101 -1 -101 -3z m49 -17 c8 -6 12 -6 12 1 0 12 48 11 68 -1 7 -5 12 -3 12
3 0 11 48 6 59 -6 3 -4 -2 -4 -12 -1 -15 6 -17 3 -12 -12 5 -16 1 -19 -15 -18
-11 1 -20 5 -20 10 0 5 -8 3 -17 -4 -9 -8 -14 -9 -10 -3 4 7 -1 18 -10 25 -14
12 -15 11 -9 -8 6 -18 3 -22 -14 -20 -11 1 -20 5 -20 10 0 5 -7 4 -15 -3 -12
-10 -19 -10 -27 -2 -29 29 -3 55 30 29z m572 1 c0 22 35 8 36 -14 1 -16 -3
-22 -17 -21 -10 1 -19 5 -19 10 0 5 -8 3 -17 -4 -10 -8 -14 -9 -10 -2 4 6 3
14 -3 18 -6 4 -8 11 -4 16 4 6 11 6 20 -2 9 -7 14 -8 14 -1z m110 -178 c-6
-11 -13 -20 -16 -20 -2 0 0 9 6 20 6 11 13 20 16 20 2 0 0 -9 -6 -20z"/>
<path d="M305 3641 c-7 -12 12 -24 25 -16 11 7 4 25 -10 25 -5 0 -11 -4 -15
-9z"/>
<path d="M356 3641 c-3 -5 1 -11 9 -14 9 -4 12 -1 8 9 -6 16 -10 17 -17 5z"/>
<path d="M436 3641 c-3 -5 1 -11 9 -14 9 -4 12 -1 8 9 -6 16 -10 17 -17 5z"/>
<path d="M916 3641 c-3 -5 1 -11 9 -14 9 -4 12 -1 8 9 -6 16 -10 17 -17 5z"/>
<path d="M1137 3655 c-4 -8 -14 -12 -25 -10 -11 2 -19 -2 -19 -10 0 -14 20
-10 50 11 10 6 14 15 9 18 -6 3 -12 -1 -15 -9z"/>
<path d="M3949 3665 c0 0 -2 -16 -4 -35 -1 -19 -1 -29 2 -22 3 6 8 10 13 7 4
-3 14 3 21 12 12 14 12 16 -1 8 -13 -8 -13 -6 -1 8 7 9 17 14 23 11 5 -3 4
-12 -3 -20 -6 -8 -10 -17 -7 -19 9 -10 28 22 23 38 -5 12 -30 16 -66 12z m21
-20 c-5 -7 -9 -14 -7 -16 1 -2 0 -3 -2 -1 -11 7 -7 29 5 29 9 0 11 -4 4 -12z"/>
<path d="M4029 3666 c0 -1 -2 -11 -3 -23 -2 -18 0 -20 11 -11 10 8 11 13 3 18
-9 5 68 6 89 1 2 -1 -2 -7 -8 -14 -6 -8 -7 -18 -3 -22 4 -5 -6 1 -22 13 -15
12 -33 19 -39 15 -5 -3 1 -12 14 -19 24 -13 24 -13 2 -11 -13 1 -23 5 -23 10
0 4 -6 5 -12 0 -7 -4 -17 -8 -22 -8 -14 0 -24 -38 -16 -60 4 -11 6 -30 4 -42
-2 -13 -1 -22 4 -22 38 6 52 -2 52 -31 0 -27 3 -30 31 -30 28 0 30 -2 26 -29
-3 -17 1 -39 11 -52 8 -12 10 -19 4 -15 -7 4 -12 2 -12 -5 0 -7 11 -10 30 -7
l29 4 3 -60 3 -61 417 -1 c290 -1 416 1 411 9 -4 6 -1 7 8 1 34 -21 40 -14 37
44 -4 54 -7 58 -37 54 -5 -1 -8 -16 -6 -33 3 -18 1 -29 -2 -25 -4 3 -8 41 -10
84 -7 145 -8 157 -15 155 -5 -2 -13 -3 -19 -3 -5 0 -7 -5 -3 -11 4 -8 9 -7 15
2 5 9 7 3 5 -15 -2 -21 -9 -30 -23 -31 -15 -1 -20 5 -20 29 -1 17 -2 57 -3 89
l-2 57 -37 1 c-20 1 -44 2 -53 2 -10 0 -18 4 -18 10 0 5 -7 4 -15 -3 -13 -10
-19 -10 -34 4 -13 11 -21 14 -26 7 -3 -6 -1 -11 6 -11 7 0 9 -3 6 -6 -4 -4
-13 -1 -22 6 -8 7 -15 8 -15 2 0 -14 -54 -9 -73 6 -10 9 -17 10 -22 2 -3 -5
-1 -10 6 -10 7 0 9 -3 6 -7 -4 -3 -15 2 -26 11 -12 11 -21 14 -26 7 -3 -6 -1
-11 6 -11 7 0 9 -3 6 -6 -4 -4 -13 -1 -22 6 -8 7 -15 8 -15 3 0 -17 -53 -9
-80 11 -14 10 -17 16 -8 13 10 -4 20 -2 23 3 3 5 14 7 25 5 11 -2 20 0 20 4 0
4 -78 7 -172 7 -159 -1 -185 -5 -161 -26 4 -3 3 0 0 7 -6 10 -1 11 32 4 2 -1
-3 -8 -10 -18 -12 -14 -12 -16 1 -11 8 3 14 12 14 20 -1 11 9 14 35 14 20 -1
42 -5 49 -9 6 -5 12 -4 12 2 0 21 35 7 36 -15 1 -16 -3 -22 -17 -21 -10 1 -19
5 -19 10 0 5 -6 5 -12 0 -16 -13 -48 -13 -48 -1 0 5 -6 6 -12 1 -22 -13 -42
-12 -59 3 -11 10 -19 12 -24 5 -3 -6 -1 -11 6 -11 7 0 9 -3 6 -6 -4 -4 -13 -1
-22 6 -8 7 -15 8 -15 3 0 -5 -9 -9 -19 -10 -14 -1 -18 5 -17 21 1 25 34 33 43
10 3 -7 9 -12 14 -9 4 3 6 11 3 18 -3 9 -29 13 -84 13 -44 0 -80 0 -81 0z
m401 -18 c0 22 35 8 36 -14 1 -16 -3 -22 -17 -21 -10 1 -19 5 -19 10 0 5 -8 3
-17 -4 -10 -8 -14 -9 -10 -2 4 6 3 14 -3 18 -6 4 -8 11 -4 16 4 6 11 6 20 -2
9 -7 14 -8 14 -1z m495 -57 c3 -5 0 -13 -6 -17 -8 -5 -9 -3 -4 6 6 10 4 12 -9
7 -10 -4 -15 -3 -11 3 8 13 22 13 30 1z m-890 -51 c4 -6 10 -8 15 -5 4 3 7 -3
6 -12 -4 -24 -21 -27 -37 -6 -11 15 -11 16 1 6 8 -7 19 -13 25 -13 5 1 -1 10
-14 20 -13 11 -18 20 -13 20 6 0 14 -5 17 -10z m1012 -265 c0 -8 -4 -15 -9
-15 -4 0 -8 7 -8 15 0 8 4 15 8 15 5 0 9 -7 9 -15z m-844 -35 c-3 -12 -8 -19
-11 -16 -5 6 5 36 12 36 2 0 2 -9 -1 -20z m44 4 c-3 -3 -12 -4 -19 -1 -8 3 -5
6 6 6 11 1 17 -2 13 -5z m-12 -24 c3 -5 2 -10 -4 -10 -5 0 -13 5 -16 10 -3 6
-2 10 4 10 5 0 13 -4 16 -10z"/>
<path d="M4436 3641 c-3 -5 1 -11 9 -14 9 -4 12 -1 8 9 -6 16 -10 17 -17 5z"/>
<path d="M4573 3649 c8 -13 15 -15 23 -8 8 7 14 6 19 -1 5 -8 11 -8 20 0 9 7
16 6 24 -4 15 -18 64 -14 69 5 3 11 1 10 -7 -1 -7 -9 -11 -10 -11 -3 0 20 18
24 28 7 7 -12 11 -13 17 -5 5 9 12 8 26 -5 14 -13 22 -14 32 -5 8 6 16 8 19 6
3 -3 15 -7 26 -10 17 -3 21 0 18 18 -2 18 -11 22 -51 24 -26 2 -54 -2 -61 -8
-8 -6 -14 -7 -14 -2 0 11 -130 11 -147 0 -7 -5 -13 -4 -13 1 0 5 -6 9 -14 9
-11 0 -12 -4 -3 -18z m67 5 c0 -8 -19 -13 -24 -6 -3 5 1 9 9 9 8 0 15 -2 15
-3z m51 -9 c1 -16 -17 -17 -30 -2 -9 12 -7 14 9 13 11 0 21 -5 21 -11z m120 0
c1 -16 -17 -17 -30 -2 -9 12 -7 14 9 13 11 0 21 -5 21 -11z m51 -4 c-4 -10 -7
-11 -10 -3 -2 7 -8 10 -13 6 -5 -3 -9 -1 -9 5 0 5 9 9 19 8 12 -1 17 -6 13
-16z"/>
<path d="M190 3640 c0 -6 7 -10 15 -10 8 0 15 2 15 4 0 2 -7 6 -15 10 -8 3
-15 1 -15 -4z"/>
<path d="M576 3638 c3 -5 10 -6 15 -3 13 9 11 12 -6 12 -8 0 -12 -4 -9 -9z"/>
<path d="M627 3636 c-4 -10 -1 -13 9 -9 7 3 14 9 14 14 0 14 -17 10 -23 -5z"/>
<path d="M745 3632 c-5 -13 -4 -14 6 -5 9 9 18 9 32 2 13 -8 22 -8 30 0 6 6 9
11 7 12 -44 8 -69 5 -75 -9z"/>
<path d="M836 3641 c-3 -5 1 -11 9 -14 9 -4 12 -1 8 9 -6 16 -10 17 -17 5z"/>
<path d="M985 3640 c-8 -12 -8 -12 36 -14 27 -1 35 2 32 11 -7 17 -23 17 -23
1 0 -8 -3 -9 -8 -3 -10 14 -30 17 -37 5z"/>
<path d="M4096 3638 c3 -5 10 -6 15 -3 13 9 11 12 -6 12 -8 0 -12 -4 -9 -9z"/>
<path d="M4147 3636 c-4 -10 -1 -13 9 -9 7 3 14 9 14 14 0 14 -17 10 -23 -5z"/>
<path d="M4265 3632 c-5 -13 -4 -14 6 -5 9 9 18 9 32 2 13 -8 22 -8 30 0 6 6
9 11 7 12 -44 8 -69 5 -75 -9z"/>
<path d="M4356 3641 c-3 -5 1 -11 9 -14 9 -4 12 -1 8 9 -6 16 -10 17 -17 5z"/>
<path d="M4504 3638 c-3 -4 -4 -8 -2 -9 42 -10 81 1 65 18 -5 4 -12 1 -17 -7
-6 -8 -10 -10 -10 -4 0 13 -29 14 -36 2z"/>
<path d="M1145 3629 c-4 -6 -4 -13 -1 -16 3 -4 6 -1 6 5 0 7 5 12 11 12 5 0 7
-5 3 -12 -4 -7 -3 -8 5 -4 12 8 6 26 -9 26 -5 0 -12 -5 -15 -11z"/>
<path d="M3975 3600 c-3 -5 -1 -10 4 -10 6 0 11 5 11 10 0 6 -2 10 -4 10 -3 0
-8 -4 -11 -10z"/>
<path d="M3955 3580 c3 -6 1 -10 -6 -10 -7 0 -10 -3 -6 -6 3 -3 13 -2 22 4 16
8 16 9 1 15 -10 4 -15 3 -11 -3z"/>
<path d="M1095 3500 c-3 -6 1 -7 9 -4 18 7 21 14 7 14 -6 0 -13 -4 -16 -10z"/>
<path d="M4950 3461 c0 -5 7 -11 14 -14 10 -4 13 -1 9 9 -6 15 -23 19 -23 5z"/>
<path d="M4066 3378 c3 -5 10 -6 15 -3 13 9 11 12 -6 12 -8 0 -12 -4 -9 -9z"/>
<path d="M80 3355 c28 -30 29 -30 26 -8 -2 9 -13 20 -27 25 l-23 9 24 -26z"/>
<path d="M4135 3300 c-3 -5 -1 -10 4 -10 6 0 11 5 11 10 0 6 -2 10 -4 10 -3 0
-8 -4 -11 -10z"/>
<path d="M250 2939 c0 -5 5 -7 10 -4 6 3 10 8 10 11 0 2 -4 4 -10 4 -5 0 -10
-5 -10 -11z"/>
<path d="M290 2939 c0 -5 5 -7 10 -4 6 3 10 8 10 11 0 2 -4 4 -10 4 -5 0 -10
-5 -10 -11z"/>
<path d="M4490 2939 c0 -5 5 -7 10 -4 6 3 10 8 10 11 0 2 -4 4 -10 4 -5 0 -10
-5 -10 -11z"/>
<path d="M4650 2939 c0 -5 5 -7 10 -4 6 3 10 8 10 11 0 2 -4 4 -10 4 -5 0 -10
-5 -10 -11z"/>
<path d="M5050 2939 c0 -5 5 -7 10 -4 6 3 10 8 10 11 0 2 -4 4 -10 4 -5 0 -10
-5 -10 -11z"/>
<path d="M5090 2939 c0 -5 5 -7 10 -4 6 3 10 8 10 11 0 2 -4 4 -10 4 -5 0 -10
-5 -10 -11z"/>
<path d="M4570 2922 c0 -7 -8 -12 -17 -11 -10 1 -71 1 -135 0 l-118 -1 2 -60
c2 -54 4 -60 23 -60 13 0 22 -6 22 -15 0 -11 -3 -12 -14 -3 -10 8 -17 8 -26
-2 -9 -10 -9 -14 1 -17 6 -3 9 -10 6 -16 -5 -8 -2 -8 7 1 20 18 34 15 18 -5
-8 -9 -9 -14 -2 -10 8 5 11 -15 11 -78 0 -69 -3 -85 -15 -85 -13 0 -13 3 -2
18 13 16 13 16 -7 0 -19 -17 -119 -18 -1787 -18 l-1767 0 1 144 c0 102 4 146
12 150 9 3 9 5 0 5 -7 1 -13 12 -13 26 0 23 -4 25 -42 25 -39 1 -670 0 -711 0
-16 0 -17 -26 -17 -435 l1 -434 2558 0 2559 0 1 434 2 435 -138 1 c-76 0 -160
1 -188 1 -27 0 -53 5 -57 11 -6 9 -8 9 -8 0 0 -15 -142 -15 -152 1 -6 8 -8 7
-8 -2z m-220 -85 c0 -5 -7 -7 -15 -3 -17 6 -20 -4 -5 -22 5 -7 3 -6 -6 2 -9 8
-14 18 -11 23 8 13 37 12 37 0z m-20 -77 c0 -5 -2 -10 -4 -10 -3 0 -8 5 -11
10 -3 6 -1 10 4 10 6 0 11 -4 11 -10z m775 -620 c3 -5 1 -10 -4 -10 -6 0 -11
5 -11 10 0 6 2 10 4 10 3 0 8 -4 11 -10z m-27 -71 c9 -12 9 -16 -1 -16 -7 0
-14 9 -14 20 -1 11 -1 18 0 16 2 -2 8 -11 15 -20z m25 7 c4 -10 1 -13 -9 -9
-15 6 -19 23 -5 23 5 0 11 -7 14 -14z"/>
<path d="M4307 2679 c7 -7 15 -10 18 -7 3 3 -2 9 -12 12 -14 6 -15 5 -6 -5z"/>
<path d="M236 1633 c-1 -1 -20 -3 -43 -4 -23 -2 -40 -7 -37 -11 3 -5 8 -6 12
-4 4 2 8 -8 8 -22 7 -140 6 -138 26 -139 17 -2 18 0 6 15 -9 12 -6 11 10 -2
13 -11 22 -29 21 -40 -3 -38 1 -45 19 -40 16 5 16 5 0 -9 -25 -20 -22 -37 7
-37 21 0 25 -5 25 -30 l0 -30 68 -1 c54 0 4394 2 4455 2 14 0 17 9 17 50 0 32
4 48 10 44 6 -4 8 -10 5 -15 -3 -5 -1 -11 4 -15 6 -3 8 4 6 16 -3 13 -10 26
-17 31 -10 6 -8 8 4 8 9 0 21 -7 26 -16 9 -16 12 4 14 92 1 28 4 32 28 30 27
-2 28 -1 29 61 l1 63 -42 0 c-242 2 -4660 4 -4662 3z m-11 -132 c-9 -8 -36
-10 -30 -2 2 4 11 8 20 8 8 0 13 -3 10 -6z m55 -141 c-8 -5 -19 -10 -25 -10
-5 0 -3 5 5 10 8 5 20 10 25 10 6 0 3 -5 -5 -10z"/>
<path d="M124 1602 c0 -20 5 -28 18 -29 28 -2 30 12 5 36 l-23 21 0 -28z m32
-19 c-7 -7 -26 7 -26 19 0 6 6 6 15 -2 9 -7 13 -15 11 -17z"/>
<path d="M4912 1495 c4 -4 3 -16 -2 -25 -7 -14 -6 -18 5 -16 8 1 18 6 22 11 5
4 2 5 -6 0 -11 -6 -13 -4 -8 8 3 9 1 19 -6 23 -7 4 -9 4 -5 -1z"/>
<path d="M599 923 c0 -4 -2 -16 -4 -26 -2 -9 1 -15 6 -11 5 3 6 10 3 16 -4 7
-2 8 4 4 15 -9 15 -12 -4 -30 -8 -9 -11 -16 -5 -16 5 0 17 7 25 16 9 8 22 12
28 9 7 -4 4 0 -7 9 -11 8 -26 20 -32 26 -7 6 -13 7 -14 3z"/>
<path d="M620 925 c0 -1 14 -12 31 -24 18 -13 28 -17 24 -10 -5 8 -4 11 0 6 5
-4 18 1 29 10 15 13 17 14 9 2 -11 -13 -8 -15 21 -14 18 0 42 7 52 15 17 13
18 13 7 -1 -11 -13 -8 -15 21 -14 18 0 42 7 52 15 17 13 18 13 7 0 -11 -14 -5
-16 45 -15 31 1 67 6 78 13 12 6 24 8 28 5 3 -3 6 -1 6 5 0 6 -9 10 -20 9 -11
-1 -20 -6 -20 -12 0 -5 -5 -3 -10 5 -6 10 -10 11 -10 3 0 -7 -5 -13 -11 -13
-5 0 -8 4 -5 8 6 11 -34 9 -51 -1 -7 -5 -13 -4 -13 2 0 11 -49 9 -68 -2 -6 -5
-12 -4 -12 2 0 11 -49 9 -68 -2 -6 -5 -12 -4 -12 2 0 11 -49 9 -68 -2 -6 -5
-12 -4 -12 1 0 5 -7 9 -15 9 -8 0 -15 -1 -15 -2z m75 -14 c-9 -8 -36 -10 -30
-2 2 4 11 8 20 8 8 0 13 -3 10 -6z m80 0 c-9 -8 -36 -10 -30 -2 2 4 11 8 20 8
8 0 13 -3 10 -6z m80 0 c-9 -8 -36 -10 -30 -2 2 4 11 8 20 8 8 0 13 -3 10 -6z
m89 -2 c3 -3 -5 -5 -19 -5 -13 0 -22 3 -19 7 4 8 30 6 38 -2z"/>
<path d="M1047 917 c2 -4 9 -4 15 -1 6 4 8 3 5 -3 -4 -6 -18 -9 -32 -7 -22 2
-25 -1 -19 -19 6 -21 6 -21 -8 -3 -12 15 -17 16 -23 6 -6 -9 -4 -11 6 -5 8 5
11 4 6 -1 -12 -13 -307 -12 -299 1 3 5 -1 5 -9 -1 -8 -6 -22 -10 -31 -9 -9 2
-24 -5 -34 -16 -9 -10 -20 -17 -24 -14 -4 2 -7 -3 -7 -11 0 -11 5 -10 22 6 12
11 25 17 28 13 10 -10 8 -25 -2 -19 -5 3 -14 -1 -21 -9 -8 -9 -8 -15 -2 -15 6
0 12 4 14 9 2 5 12 3 23 -5 17 -13 18 -16 5 -24 -9 -6 -10 -10 -3 -10 7 0 17
8 22 18 10 16 10 16 11 0 0 -10 5 -18 11 -18 5 0 7 -4 4 -10 -6 -10 -3 -11 37
-14 22 -1 34 -31 16 -43 -7 -4 -8 -1 -3 7 6 9 4 11 -5 5 -9 -6 -11 -4 -5 4 5
9 2 9 -13 0 -12 -7 -19 -15 -17 -17 4 -5 60 -13 88 -13 11 0 17 -7 16 -17 -3
-37 1 -53 13 -46 8 5 9 1 5 -12 -7 -18 -6 -18 7 -1 19 24 31 21 34 -10 1 -14
4 -28 5 -30 2 -2 27 -4 55 -6 29 -1 52 -6 52 -11 0 -5 6 -4 13 1 14 12 47 13
47 2 0 -4 -5 -11 -11 -14 -18 -12 -4 -28 27 -30 22 -1 30 3 29 14 0 9 -5 16
-10 16 -6 0 -9 -4 -8 -10 2 -6 -6 -11 -17 -11 -24 0 -25 3 -3 24 30 31 59 23
54 -15 -2 -16 16 -26 24 -13 3 5 1 18 -4 28 -9 17 -5 19 45 19 30 0 54 -5 54
-11 0 -6 5 -5 12 2 18 18 33 15 18 -3 -7 -9 -19 -14 -26 -11 -7 3 -16 1 -19
-5 -4 -5 -11 -6 -17 -3 -7 4 -6 9 1 14 7 3 -1 7 -17 7 -24 0 -29 -5 -29 -24 0
-21 1 -22 12 -7 11 15 14 15 39 -1 25 -17 26 -17 19 1 -7 18 -6 18 20 1 17
-11 27 -13 27 -6 0 8 6 7 17 -2 11 -9 14 -10 9 -2 -4 7 -3 21 3 30 8 15 24 18
90 19 47 1 81 -3 81 -9 0 -6 4 -6 13 0 14 12 47 13 47 2 0 -4 -5 -11 -11 -14
-18 -12 -4 -28 27 -30 22 -1 30 3 29 14 0 9 -5 17 -10 18 -6 1 -9 -4 -8 -11 2
-6 -6 -12 -17 -12 -24 0 -25 3 -3 24 30 31 59 23 54 -15 -2 -16 16 -26 24 -13
3 5 1 18 -4 28 -9 17 -5 19 45 19 30 0 54 -5 54 -11 0 -6 5 -5 12 2 18 18 33
15 18 -3 -7 -9 -19 -14 -26 -11 -7 3 -16 1 -19 -5 -4 -5 -11 -6 -17 -3 -7 4
-6 9 1 14 7 3 -1 7 -17 7 -24 0 -29 -5 -29 -24 0 -21 1 -22 12 -7 11 15 14 15
39 -1 25 -17 26 -17 19 1 -7 18 -6 18 20 1 17 -11 27 -13 27 -6 0 8 6 7 17 -2
11 -9 14 -10 9 -2 -4 7 -3 21 3 30 8 16 27 18 140 19 72 0 131 -3 131 -8 0 -5
6 -6 13 -1 17 11 147 12 147 1 0 -5 6 -6 13 -1 17 11 147 12 147 1 0 -5 6 -6
13 -1 17 12 147 12 147 0 0 -6 5 -6 13 0 16 14 127 13 127 -1 0 -6 5 -5 12 2
18 18 33 15 18 -3 -7 -9 -19 -14 -26 -11 -7 3 -16 1 -19 -5 -4 -5 -11 -6 -17
-3 -7 4 -6 9 1 14 7 3 -1 7 -17 7 -24 0 -29 -5 -29 -24 -1 -21 1 -22 12 -7 11
15 14 15 39 -1 25 -17 26 -17 19 1 -7 18 -6 18 20 1 17 -11 27 -13 27 -6 0 8
6 7 17 -2 11 -9 14 -10 9 -2 -4 7 -3 21 3 30 8 15 24 18 90 19 47 1 81 -3 81
-9 0 -6 4 -6 13 0 14 12 47 13 47 2 0 -4 -5 -11 -11 -14 -18 -12 -4 -28 27
-30 22 -1 30 3 29 14 0 9 -5 17 -10 18 -6 1 -9 -4 -8 -11 2 -6 -6 -12 -17 -12
-24 0 -25 3 -3 24 30 31 59 23 54 -15 -2 -16 16 -26 24 -13 3 5 1 18 -4 28 -9
17 -5 19 45 19 30 0 54 -5 54 -11 0 -6 5 -5 12 2 18 18 33 15 18 -3 -7 -9 -19
-14 -26 -11 -7 3 -16 1 -19 -5 -4 -5 -11 -6 -17 -3 -7 4 -6 9 1 14 7 3 -1 7
-17 7 -24 0 -29 -5 -29 -24 0 -21 1 -22 12 -7 11 15 14 15 39 -1 25 -17 26
-17 19 1 -7 18 -6 18 20 1 17 -11 27 -13 27 -6 0 8 6 7 17 -2 11 -9 14 -10 9
-2 -4 7 -3 21 3 30 8 15 24 18 90 19 47 1 81 -3 81 -9 0 -6 4 -6 13 0 14 12
47 13 47 2 0 -4 -5 -11 -11 -14 -18 -12 -4 -28 27 -30 25 -1 30 2 29 19 -1 12
-6 20 -11 18 -5 -2 -8 -9 -7 -16 2 -6 -6 -12 -17 -12 -24 0 -25 3 -3 24 30 31
59 23 54 -15 -2 -16 16 -26 24 -13 3 5 1 18 -4 28 -9 17 -5 19 45 19 30 0 54
-5 54 -11 0 -6 5 -5 12 2 18 18 33 15 18 -3 -7 -9 -19 -14 -26 -11 -7 3 -16 1
-19 -5 -4 -5 -11 -6 -17 -3 -7 4 -6 9 1 14 7 3 -1 7 -17 7 -24 0 -29 -5 -29
-24 0 -21 1 -22 12 -7 11 15 14 15 39 -1 25 -17 26 -17 19 1 -7 18 -6 18 20 1
17 -11 27 -13 27 -6 0 8 6 7 17 -2 11 -9 14 -10 9 -2 -4 7 -3 21 3 30 8 16 27
18 140 19 72 0 131 -3 131 -8 0 -5 6 -6 13 -1 6 4 65 8 130 9 73 1 123 6 130
13 8 8 8 11 0 11 -6 0 -9 9 -6 20 4 14 14 20 34 20 26 0 29 4 29 31 0 26 3 30
23 27 18 -2 23 2 25 30 3 28 7 32 33 32 24 0 29 4 29 25 0 21 5 25 30 25 27 0
30 3 30 31 0 20 4 28 12 23 6 -4 8 -3 4 4 -3 6 -2 13 4 17 5 3 10 1 10 -4 0
-6 5 -11 11 -11 5 0 8 4 5 9 -4 5 -3 11 2 13 4 1 0 11 -10 21 -10 9 -18 12
-18 6 0 -6 -5 -7 -12 -2 -18 11 -158 10 -158 -1 0 -5 3 -6 7 -3 3 4 12 2 20
-4 7 -6 13 -8 13 -4 0 5 10 0 22 -11 22 -19 22 -19 8 0 -8 11 -10 17 -3 13 6
-4 14 -3 18 2 3 5 14 9 25 8 10 -1 16 -5 13 -11 -4 -5 -1 -6 7 -1 9 6 11 4 5
-5 -5 -8 -4 -11 3 -6 6 3 14 1 18 -5 4 -8 3 -9 -4 -5 -7 4 -12 1 -12 -6 0 -9
-3 -9 -10 2 -6 10 -10 11 -10 3 0 -7 -5 -13 -11 -13 -8 0 -9 4 0 13 6 8 8 17
4 20 -9 9 -23 9 -22 0 4 -24 -5 -30 -51 -29 -27 1 -50 4 -50 8 0 5 5 8 12 8
16 0 1 13 -18 16 -11 2 -13 -4 -9 -19 5 -16 4 -18 -3 -8 -8 11 -10 11 -15 0
-4 -11 -6 -11 -6 -1 -1 8 -6 10 -13 5 -7 -4 -27 -8 -45 -8 -24 -1 -30 2 -23
10 5 7 7 15 3 18 -9 9 -23 9 -22 0 4 -22 -4 -29 -35 -29 -25 0 -32 4 -26 12 6
6 7 14 3 17 -9 9 -23 9 -22 0 4 -24 -5 -30 -51 -29 -27 1 -50 4 -50 8 0 5 5 8
12 8 16 0 1 13 -18 16 -11 2 -13 -4 -9 -19 5 -16 4 -18 -3 -8 -8 11 -10 11
-15 0 -4 -11 -6 -11 -6 -1 -1 8 -6 10 -13 5 -7 -4 -27 -8 -45 -8 -24 -1 -30 2
-23 10 5 7 7 15 3 18 -9 9 -23 9 -22 0 4 -24 -5 -30 -51 -29 -27 1 -50 5 -50
10 0 4 7 5 15 2 9 -3 18 1 21 9 4 8 10 15 16 15 5 0 7 -4 3 -9 -3 -5 0 -13 6
-17 8 -5 9 -3 4 7 -7 11 -5 11 10 -1 10 -8 16 -10 12 -4 -4 7 -1 16 6 22 16
12 48 12 40 -1 -4 -6 -1 -7 7 -2 8 5 11 4 7 -2 -8 -13 32 -10 59 5 12 6 24 8
28 5 3 -3 6 -1 6 5 0 6 -9 10 -20 9 -11 -1 -20 -6 -20 -12 0 -5 -5 -3 -10 5
-7 11 -10 11 -10 2 0 -8 -5 -10 -12 -5 -17 10 -158 11 -151 0 2 -4 9 -4 15 -1
6 4 8 3 5 -3 -4 -6 -18 -9 -32 -7 -22 2 -25 -1 -21 -19 3 -12 3 -16 0 -9 -3 6
-11 9 -17 5 -7 -4 -31 -8 -54 -8 -31 -1 -40 2 -33 10 6 7 7 15 3 18 -9 9 -23
9 -22 0 4 -24 -5 -30 -51 -29 -27 1 -50 4 -50 8 0 5 5 8 12 8 16 0 1 13 -18
16 -11 2 -13 -4 -9 -19 5 -16 4 -18 -3 -8 -8 11 -10 11 -15 0 -4 -11 -6 -11
-6 -1 -1 8 -6 10 -13 5 -7 -4 -27 -8 -45 -8 -24 -1 -30 2 -23 10 5 7 7 15 3
18 -9 9 -23 9 -22 0 4 -24 -5 -30 -51 -29 -27 1 -50 5 -50 10 0 4 7 5 15 2 9
-3 18 1 21 9 4 8 10 15 16 15 5 0 7 -4 3 -9 -3 -5 0 -13 6 -17 8 -5 9 -3 4 7
-7 11 -5 11 10 -1 10 -8 16 -10 12 -4 -4 7 -1 16 6 22 16 12 48 12 40 -1 -4
-6 -1 -7 7 -2 8 5 11 4 7 -2 -8 -13 32 -10 59 5 12 6 24 8 28 5 3 -3 6 -1 6 5
0 6 -9 10 -20 9 -11 -1 -20 -6 -20 -12 0 -5 -5 -3 -10 5 -7 11 -10 11 -10 2 0
-8 -5 -10 -12 -5 -17 10 -158 11 -151 0 2 -4 9 -4 15 -1 6 4 8 3 5 -3 -4 -6
-18 -9 -32 -7 -22 2 -25 -1 -21 -19 3 -12 3 -16 0 -9 -3 6 -11 9 -17 5 -17
-11 -127 -11 -127 0 0 5 7 6 15 3 9 -3 18 1 21 9 4 8 10 15 16 15 5 0 7 -4 3
-9 -3 -5 0 -13 6 -17 7 -4 9 -3 6 3 -4 6 3 10 16 9 12 -1 31 4 43 11 11 7 24
10 27 6 4 -3 7 -1 7 5 0 6 -9 10 -20 9 -11 -1 -20 -6 -20 -12 0 -5 -5 -3 -10
5 -6 10 -10 11 -10 3 0 -7 -5 -13 -11 -13 -5 0 -8 3 -5 8 2 4 -13 7 -34 7 -21
0 -36 -3 -33 -7 2 -5 9 -5 15 -2 6 4 8 3 5 -3 -4 -6 -18 -9 -32 -7 -22 2 -25
-1 -21 -19 3 -12 3 -16 0 -9 -3 6 -11 9 -17 5 -7 -4 -31 -8 -54 -8 -31 -1 -40
2 -33 10 6 7 7 15 3 18 -9 9 -23 9 -22 0 4 -24 -5 -30 -51 -29 -27 1 -50 4
-50 8 0 5 5 8 12 8 16 0 1 13 -18 16 -11 2 -13 -4 -9 -19 5 -16 4 -18 -3 -8
-8 11 -10 11 -15 0 -4 -11 -6 -11 -6 -1 -1 8 -6 10 -13 5 -7 -4 -27 -8 -45 -8
-24 -1 -30 2 -23 10 5 7 7 15 3 18 -9 9 -23 9 -22 0 4 -24 -5 -30 -51 -29 -27
1 -50 5 -50 10 0 4 7 5 15 2 9 -3 18 1 21 9 4 8 10 15 16 15 5 0 7 -4 3 -9 -3
-5 0 -13 6 -17 8 -5 9 -3 4 7 -7 11 -5 11 10 -1 10 -8 16 -10 12 -4 -4 7 -1
16 6 22 16 12 48 12 40 -1 -4 -6 -1 -7 7 -2 8 5 11 4 7 -2 -8 -13 32 -10 59 5
12 6 24 8 28 5 3 -3 6 -1 6 5 0 6 -9 10 -20 9 -11 -1 -20 -6 -20 -12 0 -5 -5
-3 -10 5 -7 11 -10 11 -10 2 0 -8 -5 -10 -12 -5 -17 10 -158 11 -151 0 2 -4 9
-4 15 -1 6 4 8 3 5 -3 -4 -6 -18 -9 -32 -7 -22 2 -25 -1 -21 -19 3 -12 3 -16
0 -9 -3 6 -11 9 -17 5 -7 -4 -31 -8 -54 -8 -31 -1 -40 2 -33 10 6 7 7 15 3 18
-9 9 -23 9 -22 0 4 -24 -5 -30 -51 -29 -27 1 -50 4 -50 8 0 5 5 8 12 8 16 0 1
13 -18 16 -11 2 -13 -4 -9 -19 5 -16 4 -18 -3 -8 -8 11 -10 11 -15 0 -4 -11
-6 -11 -6 -1 -1 8 -6 10 -13 5 -7 -4 -27 -8 -45 -8 -24 -1 -30 2 -23 10 5 7 7
15 3 18 -9 9 -23 9 -22 0 4 -22 -4 -29 -35 -29 -25 0 -32 4 -26 12 6 6 7 14 3
17 -9 9 -23 9 -22 0 4 -24 -5 -30 -51 -29 -27 1 -50 4 -50 8 0 5 5 8 12 8 16
0 1 13 -18 16 -11 2 -13 -4 -9 -19 5 -16 4 -18 -3 -8 -8 11 -10 11 -15 0 -4
-11 -6 -11 -6 -1 -1 8 -6 10 -13 5 -7 -4 -27 -8 -45 -8 -24 -1 -30 2 -23 10 5
7 7 15 3 18 -9 9 -23 9 -22 0 4 -26 -11 -28 -211 -28 -115 0 -210 4 -210 9 0
4 7 6 15 2 8 -3 18 2 23 11 6 10 14 13 23 7 23 -14 73 -11 94 5 18 15 19 15 8
0 -11 -13 -8 -15 21 -14 18 0 42 7 52 15 17 13 18 13 7 -1 -11 -13 -8 -15 21
-14 18 0 42 7 52 15 17 13 18 13 7 -1 -11 -13 -8 -15 25 -14 20 1 44 -3 52 -9
13 -10 13 -9 0 8 -8 11 -10 17 -3 13 6 -4 14 -3 18 2 3 5 14 9 25 8 10 -1 16
-5 13 -11 -4 -5 -1 -6 7 -1 8 5 11 4 7 -2 -8 -13 32 -10 59 5 12 6 24 8 28 5
3 -3 6 -1 6 5 0 6 -9 10 -20 9 -11 -1 -20 -6 -20 -12 0 -5 -5 -3 -10 5 -8 12
-10 12 -10 1 0 -9 -4 -10 -12 -4 -15 11 -118 11 -135 0 -7 -5 -13 -4 -13 2 0
11 -49 9 -68 -2 -6 -5 -12 -4 -12 2 0 11 -49 9 -68 -2 -6 -5 -12 -4 -12 2 0
11 -49 9 -68 -2 -6 -5 -12 -4 -12 1 0 5 -20 8 -44 8 -24 -1 -42 -4 -39 -9 2
-4 9 -4 15 -1 6 4 8 3 5 -3 -4 -6 -18 -9 -32 -7 -22 2 -25 -1 -21 -19 3 -12 3
-16 0 -9 -3 6 -11 9 -17 5 -7 -4 -31 -8 -54 -8 -31 -1 -40 2 -33 10 6 7 7 15
3 18 -9 9 -23 9 -22 0 4 -24 -5 -30 -51 -29 -27 1 -50 4 -50 8 0 5 5 8 12 8
16 0 1 13 -18 16 -11 2 -13 -4 -9 -19 5 -16 4 -18 -3 -8 -8 11 -10 11 -15 0
-4 -11 -6 -11 -6 -1 -1 8 -6 10 -13 5 -7 -4 -27 -8 -45 -8 -24 -1 -30 2 -23
10 5 7 7 15 3 18 -9 9 -23 9 -22 0 4 -24 -5 -30 -51 -29 -27 1 -50 5 -50 10 0
4 7 5 15 2 9 -3 18 1 21 9 4 8 10 15 16 15 5 0 7 -4 3 -9 -3 -5 0 -13 6 -17 8
-5 9 -3 4 7 -7 11 -5 11 10 -1 10 -8 16 -10 12 -4 -4 7 -1 16 6 22 16 12 48
12 40 -1 -4 -6 -1 -7 7 -2 8 5 11 4 7 -2 -8 -13 32 -10 59 5 12 6 24 8 28 5 3
-3 6 -1 6 5 0 6 -9 10 -20 9 -11 -1 -20 -6 -20 -12 0 -5 -5 -3 -10 5 -7 11
-10 11 -10 2 0 -8 -5 -10 -12 -5 -17 10 -158 11 -151 0z m73 -3 c0 -8 -19 -13
-24 -6 -3 5 1 9 9 9 8 0 15 -2 15 -3z m486 -6 c3 -4 -1 -5 -10 -4 -8 1 -18 5
-22 8 -3 4 1 5 10 4 8 -1 18 -5 22 -8z m49 3 c-9 -8 -36 -10 -30 -2 2 4 11 8
20 8 8 0 13 -3 10 -6z m80 0 c-9 -8 -36 -10 -30 -2 2 4 11 8 20 8 8 0 13 -3
10 -6z m80 0 c-9 -8 -36 -10 -30 -2 2 4 11 8 20 8 8 0 13 -3 10 -6z m80 0 c-9
-8 -36 -10 -30 -2 2 4 11 8 20 8 8 0 13 -3 10 -6z m825 3 c0 -8 -19 -13 -24
-6 -3 5 1 9 9 9 8 0 15 -2 15 -3z m640 0 c0 -8 -19 -13 -24 -6 -3 5 1 9 9 9 8
0 15 -2 15 -3z m480 0 c0 -8 -19 -13 -24 -6 -3 5 1 9 9 9 8 0 15 -2 15 -3z
m652 -9 c3 0 9 -3 13 -7 4 -3 0 -5 -9 -4 -9 1 -22 8 -29 16 -10 10 -9 11 3 4
8 -5 18 -9 22 -9z m-3213 -356 c-25 -16 -32 -9 -13 12 12 13 20 16 22 9 3 -7
-2 -16 -9 -21z m480 0 c-25 -16 -32 -9 -13 12 12 13 20 16 22 9 3 -7 -2 -16
-9 -21z m960 0 c-25 -16 -32 -9 -13 12 12 13 20 16 22 9 3 -7 -2 -16 -9 -21z
m480 0 c-25 -16 -32 -9 -13 12 12 13 20 16 22 9 3 -7 -2 -16 -9 -21z m480 0
c-25 -16 -32 -9 -13 12 12 13 20 16 22 9 3 -7 -2 -16 -9 -21z"/>
<path d="M1280 918 c0 -4 5 -10 10 -13 6 -4 8 -10 6 -14 -3 -4 12 -7 32 -6 20
0 37 6 37 12 0 20 14 26 30 13 8 -7 13 -15 10 -19 -2 -4 13 -7 33 -6 22 1 36
6 35 13 -3 11 10 16 30 13 4 0 7 3 7 8 0 6 -9 9 -20 8 -11 -1 -20 -6 -20 -12
0 -5 -5 -3 -10 5 -7 11 -10 11 -10 2 0 -8 -5 -10 -12 -5 -16 10 -158 11 -158
1z m44 -11 c12 12 33 11 33 -1 0 -17 -44 -14 -59 4 -11 12 -10 12 3 2 9 -6 19
-9 23 -5z m114 3 c1 -2 6 -3 11 -4 22 -3 19 -13 -4 -12 -13 1 -30 7 -36 13 -9
9 -7 11 7 8 11 -2 20 -4 22 -5z"/>
<path d="M2080 918 c0 -4 5 -10 10 -13 6 -4 8 -10 6 -14 -3 -4 12 -7 32 -6 20
0 37 6 37 12 0 6 3 15 7 19 9 9 40 -15 33 -26 -3 -5 3 -7 12 -5 10 2 23 4 28
4 6 1 4 5 -3 10 -11 6 -10 10 3 15 18 7 48 -11 40 -24 -4 -6 41 -6 55 0 3 1 9
2 13 1 5 -1 6 3 2 9 -6 9 7 14 28 11 4 0 7 3 7 8 0 6 -9 9 -20 8 -11 -1 -20
-6 -20 -12 0 -5 -5 -3 -10 5 -7 11 -10 11 -10 2 0 -8 -5 -10 -12 -5 -16 10
-238 11 -238 1z m44 -11 c12 12 33 11 33 -1 0 -17 -44 -14 -59 4 -11 12 -10
12 3 2 9 -6 19 -9 23 -5z m103 -4 c0 -9 -4 -10 -14 -2 -7 6 -13 12 -13 14 0 1
6 2 13 2 8 0 14 -6 14 -14z m93 7 c3 -1 10 -1 15 0 6 1 6 -2 2 -6 -13 -13 -36
-13 -47 1 -9 10 -7 13 7 10 10 -2 20 -4 23 -5z"/>
<path d="M2400 918 c0 -4 5 -10 10 -13 6 -4 8 -10 6 -14 -3 -4 12 -7 32 -6 20
0 37 6 37 12 0 20 14 26 30 13 8 -7 13 -15 10 -19 -2 -4 13 -7 33 -6 22 1 36
6 35 13 -3 11 10 16 30 13 4 0 7 3 7 8 0 6 -9 9 -20 8 -11 -1 -20 -6 -20 -12
0 -5 -5 -3 -10 5 -7 11 -10 11 -10 2 0 -8 -5 -10 -12 -5 -16 10 -158 11 -158
1z m44 -11 c12 12 33 11 33 -1 0 -17 -44 -14 -59 4 -11 12 -10 12 3 2 9 -6 19
-9 23 -5z m114 3 c1 -2 6 -3 11 -4 22 -3 19 -13 -4 -12 -13 1 -30 7 -36 13 -9
9 -7 11 7 8 11 -2 20 -4 22 -5z"/>
<path d="M2880 918 c0 -4 5 -10 10 -13 6 -4 8 -10 6 -14 -3 -4 12 -7 32 -6 20
0 37 6 37 12 0 20 14 26 30 13 8 -7 13 -15 10 -19 -2 -4 13 -7 33 -6 22 1 36
6 35 13 -3 11 10 16 30 13 4 0 7 3 7 8 0 6 -9 9 -20 8 -11 -1 -20 -6 -20 -12
0 -5 -5 -3 -10 5 -7 11 -10 11 -10 2 0 -8 -5 -10 -12 -5 -16 10 -158 11 -158
1z m44 -11 c12 12 33 11 33 -1 0 -17 -44 -14 -59 4 -11 12 -10 12 3 2 9 -6 19
-9 23 -5z m114 3 c1 -2 6 -3 11 -4 22 -3 19 -13 -4 -12 -13 1 -30 7 -36 13 -9
9 -7 11 7 8 11 -2 20 -4 22 -5z"/>
<path d="M3520 918 c0 -4 5 -10 10 -13 6 -4 8 -10 6 -14 -3 -4 12 -7 32 -6 20
0 37 6 37 12 0 20 14 26 30 13 8 -7 13 -15 10 -19 -2 -4 13 -7 33 -6 22 1 36
6 35 13 -3 11 10 16 30 13 4 0 7 3 7 8 0 6 -9 9 -20 8 -11 -1 -20 -6 -20 -12
0 -5 -5 -3 -10 5 -7 11 -10 11 -10 2 0 -8 -5 -10 -12 -5 -16 10 -158 11 -158
1z m44 -11 c12 12 33 11 33 -1 0 -17 -44 -14 -59 4 -11 12 -10 12 3 2 9 -6 19
-9 23 -5z m114 3 c1 -2 6 -3 11 -4 22 -3 19 -13 -4 -12 -13 1 -30 7 -36 13 -9
9 -7 11 7 8 11 -2 20 -4 22 -5z"/>
<path d="M4000 918 c0 -4 5 -10 10 -13 6 -4 8 -10 6 -14 -3 -4 12 -7 32 -6 20
0 37 6 37 12 0 6 3 15 7 19 9 9 40 -15 33 -26 -3 -5 3 -7 12 -5 10 2 23 4 28
4 6 1 4 5 -3 10 -11 6 -10 10 3 15 18 7 48 -11 40 -24 -4 -6 41 -6 55 0 3 1 9
2 13 1 5 -1 6 3 2 9 -6 9 7 14 28 11 4 0 7 3 7 8 0 6 -9 9 -20 8 -11 -1 -20
-6 -20 -12 0 -5 -5 -3 -10 5 -7 11 -10 11 -10 2 0 -8 -5 -10 -12 -5 -16 10
-238 11 -238 1z m44 -11 c12 12 33 11 33 -1 0 -17 -44 -14 -59 4 -11 12 -10
12 3 2 9 -6 19 -9 23 -5z m103 -4 c0 -9 -4 -10 -14 -2 -7 6 -13 12 -13 14 0 1
6 2 13 2 8 0 14 -6 14 -14z m93 7 c3 -1 10 -1 15 0 6 1 6 -2 2 -6 -13 -13 -36
-13 -47 1 -9 10 -7 13 7 10 10 -2 20 -4 23 -5z"/>
<path d="M4510 920 c0 -5 5 -10 11 -10 5 0 7 5 4 10 -3 6 -8 10 -11 10 -2 0
-4 -4 -4 -10z"/>
<path d="M4333 897 c0 -7 11 -13 23 -13 20 0 25 11 6 11 -4 0 -12 3 -18 7 -6
4 -11 1 -11 -5z"/>
<path d="M1556 892 c-3 -5 1 -9 9 -9 8 0 12 4 9 9 -3 4 -7 8 -9 8 -2 0 -6 -4
-9 -8z"/>
<path d="M4430 780 c0 -5 5 -10 11 -10 5 0 7 5 4 10 -3 6 -8 10 -11 10 -2 0
-4 -4 -4 -10z"/>
<path d="M710 738 c0 -4 4 -8 9 -8 6 0 12 4 15 8 3 5 -1 9 -9 9 -8 0 -15 -4
-15 -9z"/>
<path d="M795 680 c-3 -5 -1 -10 4 -10 6 0 11 5 11 10 0 6 -2 10 -4 10 -3 0
-8 -4 -11 -10z"/>
<path d="M770 661 c0 -9 30 -24 36 -18 2 1 -6 8 -16 15 -11 7 -20 8 -20 3z"/>
<path d="M850 600 c0 -5 5 -10 10 -10 6 0 10 5 10 10 0 6 -4 10 -10 10 -5 0
-10 -4 -10 -10z"/>
<path d="M1007 553 c-13 -14 -17 -14 -17 -3 0 11 -3 11 -12 2 -9 -9 -15 -9
-27 1 -10 7 -8 2 3 -11 20 -23 32 -30 21 -12 -8 13 1 13 27 -1 15 -8 19 -8 13
0 -4 7 -1 18 5 26 17 21 8 19 -13 -2z"/>
<path d="M1316 553 c-4 -9 -3 -20 2 -25 4 -4 9 4 10 17 2 29 -3 32 -12 8z"/>
<path d="M1350 555 c-10 -12 -10 -19 -2 -27 17 -17 37 5 25 27 -9 15 -11 15
-23 0z m20 -15 c0 -5 -4 -10 -10 -10 -5 0 -10 5 -10 10 0 6 5 10 10 10 6 0 10
-4 10 -10z"/>
<path d="M1393 543 c0 -21 1 -22 12 -6 13 17 14 17 36 -2 12 -11 19 -14 15 -7
-9 15 -1 15 26 1 15 -8 19 -8 13 0 -4 7 -1 20 6 29 11 13 8 12 -9 -2 -15 -13
-22 -15 -22 -6 0 10 -3 10 -14 1 -9 -7 -17 -8 -20 -2 -3 5 0 11 6 13 7 3 -1 5
-18 5 -26 0 -31 -4 -31 -24z"/>
<path d="M1796 553 c-4 -9 -3 -20 2 -25 4 -4 9 4 10 17 2 29 -3 32 -12 8z"/>
<path d="M1830 555 c-10 -12 -10 -19 -2 -27 17 -17 37 5 25 27 -9 15 -11 15
-23 0z m20 -15 c0 -5 -4 -10 -10 -10 -5 0 -10 5 -10 10 0 6 5 10 10 10 6 0 10
-4 10 -10z"/>
<path d="M1873 543 c0 -22 1 -23 9 -9 6 11 16 15 30 10 14 -4 19 -2 16 6 -2 7
-16 14 -30 16 -21 2 -25 -2 -25 -23z"/>
<path d="M1944 547 c1 -11 9 -21 19 -23 9 -1 15 2 11 7 -7 12 3 11 28 -2 15
-8 19 -8 13 0 -4 7 -1 20 6 29 10 12 7 11 -10 -3 -21 -17 -24 -18 -18 -2 9 24
-5 21 -21 -4 -7 -12 -16 -18 -19 -15 -3 3 -1 12 5 19 9 10 8 14 -2 14 -7 0
-13 -9 -12 -20z"/>
<path d="M2104 547 c1 -11 9 -21 19 -23 9 -1 15 2 11 7 -7 12 3 11 28 -2 15
-8 19 -8 13 0 -4 7 -1 20 6 29 10 12 7 11 -10 -3 -21 -17 -24 -18 -18 -2 9 24
-5 21 -21 -4 -7 -12 -16 -18 -19 -15 -3 3 -1 12 5 19 9 10 8 14 -2 14 -7 0
-13 -9 -12 -20z"/>
<path d="M2264 547 c1 -11 9 -21 19 -23 9 -1 15 2 11 7 -7 12 3 11 28 -2 15
-8 19 -8 13 0 -4 7 -1 20 6 29 10 12 7 11 -10 -3 -21 -17 -24 -18 -18 -2 9 24
-5 21 -21 -4 -7 -12 -16 -18 -19 -15 -3 3 -1 12 5 19 9 10 8 14 -2 14 -7 0
-13 -9 -12 -20z"/>
<path d="M2424 547 c1 -11 9 -21 19 -23 9 -1 15 2 11 7 -7 12 3 11 28 -2 15
-8 19 -8 13 0 -4 7 -1 20 6 29 10 12 7 11 -10 -3 -21 -17 -24 -18 -18 -2 9 24
-5 21 -21 -4 -7 -12 -16 -18 -19 -15 -3 3 -1 12 5 19 9 10 8 14 -2 14 -7 0
-13 -9 -12 -20z"/>
<path d="M2550 555 c-10 -12 -10 -19 -2 -27 17 -17 37 5 25 27 -9 15 -11 15
-23 0z m20 -15 c0 -5 -4 -10 -10 -10 -5 0 -10 5 -10 10 0 6 5 10 10 10 6 0 10
-4 10 -10z"/>
<path d="M2756 553 c-4 -9 -3 -20 2 -25 4 -4 9 4 10 17 2 29 -3 32 -12 8z"/>
<path d="M2790 555 c-10 -12 -10 -19 -2 -27 17 -17 37 5 25 27 -9 15 -11 15
-23 0z m20 -15 c0 -5 -4 -10 -10 -10 -5 0 -10 5 -10 10 0 6 5 10 10 10 6 0 10
-4 10 -10z"/>
<path d="M2833 543 c0 -21 1 -22 12 -6 13 17 14 17 36 -2 12 -11 19 -14 15 -7
-9 15 -1 15 26 1 15 -8 19 -8 13 0 -4 7 -1 20 6 29 11 13 8 12 -9 -2 -15 -13
-22 -15 -22 -6 0 10 -3 10 -14 1 -9 -7 -17 -8 -20 -2 -3 5 0 11 6 13 7 3 -1 5
-18 5 -26 0 -31 -4 -31 -24z"/>
<path d="M3236 553 c-4 -9 -3 -20 2 -25 4 -4 9 4 10 17 2 29 -3 32 -12 8z"/>
<path d="M3270 555 c-10 -12 -10 -19 -2 -27 17 -17 37 5 25 27 -9 15 -11 15
-23 0z m20 -15 c0 -5 -4 -10 -10 -10 -5 0 -10 5 -10 10 0 6 5 10 10 10 6 0 10
-4 10 -10z"/>
<path d="M3313 543 c0 -21 1 -22 12 -6 13 17 14 17 36 -2 12 -11 19 -14 15 -7
-9 15 -1 15 26 1 15 -8 19 -8 13 0 -4 7 -1 20 6 29 11 13 8 12 -9 -2 -15 -13
-22 -15 -22 -6 0 10 -3 10 -14 1 -9 -7 -17 -8 -20 -2 -3 5 0 11 6 13 7 3 -1 5
-18 5 -26 0 -31 -4 -31 -24z"/>
<path d="M3716 553 c-4 -9 -3 -20 2 -25 4 -4 9 4 10 17 2 29 -3 32 -12 8z"/>
<path d="M3750 555 c-10 -12 -10 -19 -2 -27 17 -17 37 5 25 27 -9 15 -11 15
-23 0z m20 -15 c0 -5 -4 -10 -10 -10 -5 0 -10 5 -10 10 0 6 5 10 10 10 6 0 10
-4 10 -10z"/>
<path d="M3793 543 c0 -22 1 -23 9 -9 6 11 16 15 30 10 14 -4 19 -2 16 6 -2 7
-16 14 -30 16 -21 2 -25 -2 -25 -23z"/>
<path d="M3864 547 c1 -11 9 -21 19 -23 9 -1 15 2 11 7 -7 12 3 11 28 -2 15
-8 19 -8 13 0 -4 7 -1 20 6 29 10 12 7 11 -10 -3 -21 -17 -24 -18 -18 -2 9 24
-5 21 -21 -4 -7 -12 -16 -18 -19 -15 -3 3 -1 12 5 19 9 10 8 14 -2 14 -7 0
-13 -9 -12 -20z"/>
<path d="M4024 547 c1 -11 9 -21 19 -23 9 -1 15 2 11 7 -7 12 3 11 28 -2 15
-8 19 -8 13 0 -4 7 -1 20 6 29 10 12 7 11 -10 -3 -21 -17 -24 -18 -18 -2 9 24
-5 21 -21 -4 -7 -12 -16 -18 -19 -15 -3 3 -1 12 5 19 9 10 8 14 -2 14 -7 0
-13 -9 -12 -20z"/>
<path d="M4120 555 c-7 -9 -10 -18 -7 -22 4 -3 9 2 13 11 3 9 11 13 17 9 6 -3
7 -1 3 5 -9 15 -11 15 -26 -3z"/>
<path d="M2034 549 c-3 -6 -2 -15 3 -20 5 -5 9 -1 10 11 2 22 -2 25 -13 9z"/>
<path d="M2065 550 c-8 -13 3 -30 18 -29 9 0 9 2 0 6 -7 2 -13 9 -13 14 0 6 5
7 10 4 6 -3 10 -1 10 4 0 14 -17 14 -25 1z"/>
<path d="M2194 549 c-3 -6 -2 -15 3 -20 5 -5 9 -1 10 11 2 22 -2 25 -13 9z"/>
<path d="M2225 550 c-8 -13 3 -30 18 -29 9 0 9 2 0 6 -7 2 -13 9 -13 14 0 6 5
7 10 4 6 -3 10 -1 10 4 0 14 -17 14 -25 1z"/>
<path d="M2354 549 c-3 -6 -2 -15 3 -20 5 -5 9 -1 10 11 2 22 -2 25 -13 9z"/>
<path d="M2385 550 c-8 -13 3 -30 18 -29 9 0 9 2 0 6 -7 2 -13 9 -13 14 0 6 5
7 10 4 6 -3 10 -1 10 4 0 14 -17 14 -25 1z"/>
<path d="M2514 549 c-3 -6 -2 -15 3 -20 5 -5 9 -1 10 11 2 22 -2 25 -13 9z"/>
<path d="M3954 549 c-3 -6 -2 -15 3 -20 5 -5 9 -1 10 11 2 22 -2 25 -13 9z"/>
<path d="M3985 550 c-8 -13 3 -30 18 -29 9 0 9 2 0 6 -7 2 -13 9 -13 14 0 6 5
7 10 4 6 -3 10 -1 10 4 0 14 -17 14 -25 1z"/>
<path d="M4148 538 c-10 -10 -14 -18 -9 -18 10 0 36 29 30 34 -2 1 -12 -6 -21
-16z"/>
<path d="M1534 211 c0 -11 3 -18 7 -15 4 2 9 -1 11 -8 3 -7 7 -4 12 7 4 11 4
16 0 12 -4 -4 -12 0 -18 9 -10 13 -12 13 -12 -5z"/>
<path d="M1581 214 c7 -8 6 -14 -1 -19 -5 -3 -10 -11 -10 -18 0 -6 7 -2 15 9
8 10 15 15 15 10 0 -5 6 -3 13 3 10 8 14 7 14 -4 0 -8 -3 -12 -7 -10 -3 2 -12
-1 -20 -6 -11 -7 -7 -8 13 -5 19 3 30 0 34 -10 8 -21 22 -17 18 5 -3 15 1 18
13 14 15 -4 15 -3 2 6 -12 9 -8 10 17 6 17 -3 35 0 38 5 5 8 11 7 21 -1 8 -6
14 -8 14 -4 0 4 8 1 18 -6 16 -13 16 -13 2 5 -13 18 -13 19 0 11 8 -6 22 -10
30 -10 8 0 21 -4 29 -9 9 -6 12 -5 8 1 -4 7 5 10 23 8 20 -2 27 1 23 9 -3 6
-3 8 2 4 4 -4 15 -2 23 5 13 10 14 9 7 -2 -5 -10 -4 -12 3 -7 7 4 12 11 12 16
0 10 -49 8 -67 -3 -6 -4 -13 -1 -16 5 -3 10 -7 10 -20 -1 -14 -11 -17 -11 -17
0 0 8 -6 5 -15 -7 -13 -16 -14 -16 -9 -1 6 18 -10 24 -21 7 -3 -5 -14 -10 -23
-10 -15 0 -15 2 -2 10 8 5 11 10 6 10 -5 0 -18 -7 -28 -17 -17 -15 -19 -15
-40 3 -12 10 -18 13 -14 7 4 -7 2 -13 -3 -13 -6 0 -11 5 -11 12 0 6 -7 3 -15
-8 -13 -16 -14 -16 -9 -1 6 18 -10 24 -21 7 -3 -5 -14 -10 -23 -10 -15 0 -15
2 -2 10 12 7 10 9 -7 7 -16 -1 -19 -5 -12 -13z m283 -2 c3 -5 -1 -9 -9 -9 -8
0 -12 4 -9 9 3 4 7 8 9 8 2 0 6 -4 9 -8z m-203 -15 c-6 -8 -7 -18 -3 -23 4 -4
-1 -2 -10 5 -19 14 -25 26 -9 16 5 -3 12 -1 16 5 3 5 9 10 12 10 3 0 0 -6 -6
-13z"/>
<path d="M1710 220 c0 -5 5 -10 10 -10 6 0 10 5 10 10 0 6 -4 10 -10 10 -5 0
-10 -4 -10 -10z"/>
<path d="M1963 224 c6 -10 -13 -25 -35 -28 -3 -1 -9 -4 -13 -8 -6 -5 19 -4 35
2 3 1 8 2 13 1 4 0 7 4 7 11 0 6 3 8 6 5 4 -3 16 -2 27 4 15 9 18 8 12 -2 -5
-8 -4 -10 3 -5 19 11 14 25 -8 23 -11 -1 -20 -5 -20 -10 0 -5 -8 -3 -17 4 -9
8 -14 9 -10 3z"/>
<path d="M2043 224 c8 -14 -17 -27 -61 -32 -7 -1 -11 -6 -8 -10 3 -5 -1 -9 -9
-9 -8 0 -11 5 -8 10 4 6 1 7 -8 1 -19 -12 -32 -12 -48 0 -12 9 -13 8 -6 -4 7
-13 6 -13 -7 -2 -13 10 -17 10 -20 0 -4 -10 -9 -10 -23 2 -17 13 -18 13 -10 0
7 -13 6 -13 -7 -2 -13 10 -17 10 -20 0 -4 -11 -8 -11 -20 0 -10 8 -19 9 -22 3
-6 -9 -18 -9 -51 0 -16 4 -45 -12 -39 -22 3 -5 -2 -12 -10 -15 -33 -13 -13
-19 72 -23 48 -2 99 -4 114 -5 14 0 24 -4 21 -8 -2 -5 1 -8 7 -8 7 0 6 -5 -2
-14 -13 -14 -32 -11 -23 4 3 5 0 12 -6 16 -8 4 -9 3 -5 -4 4 -7 2 -12 -3 -12
-6 0 -11 5 -11 11 0 5 -5 7 -11 3 -8 -5 -8 -9 1 -14 6 -4 11 -11 11 -16 -1 -5
18 -9 41 -10 219 -6 265 -10 261 -22 -4 -10 -9 -10 -22 0 -11 8 -10 5 3 -10
24 -27 13 -29 -21 -2 -14 11 -31 20 -37 20 -6 0 -2 -6 9 -12 11 -7 25 -17 31
-23 8 -8 125 -12 394 -14 359 -2 383 -1 396 16 11 14 13 14 9 2 -5 -13 3 -16
49 -15 30 0 52 4 50 8 -2 3 5 13 17 22 22 15 22 15 1 13 -11 0 -18 -6 -15 -12
4 -5 3 -7 -2 -3 -4 4 -14 3 -21 -2 -6 -6 -21 -13 -33 -15 -20 -4 -20 -3 -5 21
12 18 20 22 29 14 8 -7 15 -7 19 -1 3 5 57 10 119 11 61 1 118 2 125 3 9 0 12
9 9 24 -2 13 1 24 7 25 22 3 62 5 114 6 39 2 52 6 52 17 0 19 10 19 35 1 19
-13 20 -12 20 24 0 23 -4 36 -10 33 -5 -3 -4 0 3 8 17 19 15 28 -8 26 -11 -1
-20 -5 -20 -10 0 -5 -8 -3 -17 4 -11 10 -14 10 -9 2 4 -7 2 -13 -3 -13 -6 0
-11 4 -11 8 0 10 -131 9 -147 -1 -6 -4 -13 -1 -16 5 -3 10 -7 10 -20 -1 -14
-11 -17 -11 -17 0 0 8 -6 5 -15 -7 -13 -16 -14 -16 -9 -1 7 21 4 21 -31 3 -14
-8 -22 -17 -16 -20 5 -4 12 -2 16 4 4 6 12 7 18 3 7 -4 19 -8 27 -8 8 0 21 -4
29 -9 9 -6 12 -5 8 1 -4 6 12 9 39 8 25 0 48 3 50 7 3 5 11 5 17 1 13 -8 16
-9 61 -19 20 -5 27 -3 22 4 -3 6 -1 14 5 18 8 5 9 3 4 -5 -4 -8 4 -6 21 4 23
14 25 14 10 1 -14 -11 -15 -16 -6 -16 9 0 8 -4 -5 -14 -13 -9 -28 -11 -46 -6
-15 5 -30 6 -33 2 -3 -3 -6 0 -6 7 0 7 -5 9 -12 4 -18 -11 -81 -11 -95 0 -9 6
-13 6 -13 -2 0 -12 -27 -10 -47 2 -8 5 -13 4 -13 -2 0 -12 -27 -10 -47 2 -7 5
-13 4 -13 -1 0 -5 -13 -9 -30 -9 -16 0 -30 3 -30 7 0 3 -9 6 -20 7 -11 1 -18
-2 -15 -6 6 -10 -42 -7 -69 5 -12 4 -17 4 -13 -2 7 -12 -72 -12 -90 -1 -8 5
-13 4 -13 -2 0 -12 -27 -10 -47 2 -7 5 -13 4 -13 -1 0 -11 -69 -10 -88 1 -6 5
-12 4 -12 -2 0 -12 -27 -10 -47 2 -8 5 -13 4 -13 -3 0 -11 -29 -8 -64 6 -13 5
-17 4 -13 -3 7 -12 -36 -10 -67 3 -12 5 -17 4 -13 -3 7 -11 -32 -11 -50 0 -7
5 -13 4 -13 -1 0 -5 -13 -9 -30 -9 -16 0 -30 4 -30 9 0 5 -6 6 -12 1 -18 -11
-39 -13 -33 -3 3 5 0 10 -7 12 -9 3 -9 6 0 12 7 4 12 2 12 -5 0 -7 7 -4 15 7
15 19 15 19 8 -1 -6 -17 -4 -18 9 -8 8 7 19 9 23 5 5 -4 5 -1 0 7 -5 10 -4 12
4 7 6 -4 8 -12 5 -18 -4 -6 -1 -8 7 -6 8 3 13 11 11 18 -2 10 0 11 11 2 10 -9
17 -9 27 1 10 10 11 9 5 -2 -5 -9 -4 -12 3 -7 7 4 12 11 12 15 0 9 -131 8
-147 -2 -6 -4 -13 -1 -16 5 -3 10 -7 10 -20 -1 -14 -11 -17 -11 -17 0 0 8 -6
5 -15 -7 -13 -16 -14 -16 -9 -1 7 21 4 21 -31 3 -14 -8 -22 -17 -16 -20 5 -4
12 -2 16 4 4 6 12 7 18 3 7 -4 19 -8 27 -8 8 0 21 -4 29 -9 10 -7 12 -6 6 4
-5 9 -4 11 3 6 7 -4 12 -11 12 -17 0 -10 -28 -8 -47 4 -8 5 -13 4 -13 -2 0
-12 -27 -10 -47 2 -7 5 -13 4 -13 -1 0 -5 -13 -9 -30 -9 -16 0 -30 3 -30 7 0
3 -9 6 -20 7 -11 1 -18 -2 -15 -6 6 -11 -53 -6 -63 4 -4 5 1 5 10 2 10 -3 20
-2 23 4 4 5 11 7 16 4 5 -4 9 -2 9 3 0 5 13 8 30 7 18 -2 27 1 23 8 -3 6 -1 7
6 3 6 -4 8 -12 5 -18 -4 -6 -1 -8 7 -6 8 3 13 11 11 17 -1 7 1 10 6 7 4 -2 14
-1 20 3 7 4 -10 7 -38 7 -27 -1 -50 -5 -50 -10 0 -5 -8 -2 -17 5 -9 8 -14 9
-10 3z m221 -12 c3 -5 -1 -9 -9 -9 -8 0 -12 4 -9 9 3 4 7 8 9 8 2 0 6 -4 9 -8z
m960 0 c3 -5 -1 -9 -9 -9 -8 0 -12 4 -9 9 3 4 7 8 9 8 2 0 6 -4 9 -8z m81 -1
c-8 -7 -65 -8 -60 -1 2 3 18 6 34 6 17 0 28 -2 26 -5z m83 -11 c3 -9 -1 -11
-14 -6 -11 5 -24 9 -31 10 -27 5 -21 12 9 11 18 -1 34 -8 36 -15z m-1682 -32
c-3 -21 -16 -38 -29 -38 -7 0 -6 4 3 10 8 5 16 14 16 20 2 16 4 20 8 20 2 0 3
-6 2 -12z m1754 -8 c0 -5 -7 -10 -15 -10 -8 0 -15 5 -15 10 0 6 7 10 15 10 8
0 15 -4 15 -10z m-245 -79 c-3 -6 -11 -11 -16 -11 -5 0 -4 6 3 14 14 16 24 13
13 -3z m-1040 -45 c-1 -12 -9 -21 -18 -21 -16 0 -19 8 -10 31 7 19 29 11 28
-10z m748 9 c-3 -9 -8 -14 -10 -11 -3 3 -2 9 2 15 9 16 15 13 8 -4z"/>
<path d="M2146 32 c-3 -5 1 -9 9 -9 8 0 12 4 9 9 -7 10 -11 10 -18 0z"/>
<path d="M2443 224 c7 -12 -20 -29 -38 -25 -5 2 -6 -1 -2 -5 14 -14 38 -13 44
2 4 11 9 12 18 4 22 -18 56 -20 62 -4 4 11 9 12 18 4 18 -15 54 -21 60 -9 4 5
12 6 18 2 18 -11 36 -12 43 -2 3 5 11 6 17 2 17 -10 77 -11 83 -1 3 5 11 5 17
1 18 -11 36 -12 43 -2 3 5 11 6 17 2 21 -13 79 -10 84 4 4 10 9 11 18 3 22
-18 56 -20 62 -4 4 11 9 12 19 3 8 -6 14 -8 14 -4 0 4 6 3 13 -1 18 -14 52
-11 52 4 0 7 6 16 13 21 7 4 -9 7 -38 7 -27 -1 -50 -5 -50 -10 0 -5 -8 -2 -17
5 -9 8 -14 9 -10 3 4 -7 0 -14 -8 -17 -9 -4 -12 -1 -9 8 4 9 -1 13 -15 12 -12
-1 -21 -5 -21 -10 0 -5 -8 -3 -17 4 -9 8 -14 9 -10 3 4 -7 0 -14 -8 -17 -9 -4
-12 -1 -9 8 4 10 -2 13 -23 11 -15 -1 -33 -5 -40 -9 -6 -4 -13 -1 -16 5 -3 10
-7 10 -20 -1 -14 -11 -17 -11 -17 0 0 8 -6 5 -15 -7 -13 -16 -14 -16 -9 -1 6
17 -10 24 -20 8 -3 -5 -16 -11 -28 -14 -22 -6 -23 -6 -3 9 20 15 20 15 0 12
-11 -2 -25 -7 -32 -11 -6 -4 -13 -1 -16 5 -3 10 -7 10 -20 -1 -14 -11 -17 -11
-17 0 0 8 -6 5 -15 -7 -13 -16 -14 -16 -9 -1 6 18 -10 24 -21 7 -3 -5 -11 -10
-16 -10 -6 0 -7 5 -4 10 3 6 1 10 -4 10 -6 0 -11 -5 -11 -11 0 -8 -6 -7 -17 2
-9 8 -14 9 -10 3 4 -7 0 -14 -8 -17 -9 -4 -12 -1 -9 8 4 9 -1 13 -15 12 -12
-1 -21 -5 -21 -10 0 -5 -8 -3 -17 4 -9 8 -14 9 -10 3z m54 -18 c0 -8 -6 -12
-15 -9 -11 5 -11 7 0 14 7 5 13 9 14 9 0 0 1 -6 1 -14z m100 1 c0 -8 -6 -14
-14 -14 -9 0 -10 4 -2 14 6 7 12 13 14 13 1 0 2 -6 2 -13z m68 -5 c-10 -11
-35 -10 -42 0 -3 6 -1 8 5 4 6 -3 13 -2 17 4 4 6 11 8 16 4 6 -3 8 -9 4 -12z
m32 3 c0 -8 -4 -12 -9 -9 -5 3 -6 10 -3 15 9 13 12 11 12 -6z m60 2 c0 -8 -6
-14 -14 -14 -9 0 -10 4 -2 14 6 7 12 13 14 13 1 0 2 -6 2 -13z m68 -5 c-10
-11 -35 -10 -42 0 -3 6 -1 8 5 4 6 -3 13 -2 17 4 4 6 11 8 16 4 6 -3 8 -9 4
-12z m72 3 c0 -7 -12 -11 -26 -9 -33 3 -33 3 -27 12 7 12 53 9 53 -3z m80 1
c0 -8 -6 -12 -15 -9 -11 5 -11 7 0 14 7 5 13 9 14 9 0 0 1 -6 1 -14z m97 -7
c-3 -5 -10 -7 -15 -3 -5 3 -7 10 -3 15 3 5 10 7 15 3 5 -3 7 -10 3 -15z"/>
<path d="M3484 223 c4 -7 3 -13 -3 -13 -20 0 -3 -35 17 -36 26 -1 49 21 32 31
-6 3 -8 11 -5 16 4 5 1 9 -4 9 -6 0 -11 -5 -11 -11 0 -8 -6 -7 -17 2 -11 10
-14 10 -9 2z m36 -28 c-8 -14 -39 -13 -33 1 2 7 12 11 21 10 9 -2 15 -7 12
-11z"/>
<path d="M3550 200 c0 -4 7 -7 15 -6 23 3 26 12 5 13 -11 1 -20 -2 -20 -7z"/>
<path d="M1736 192 c-3 -5 1 -9 9 -9 8 0 12 4 9 9 -3 4 -7 8 -9 8 -2 0 -6 -4
-9 -8z"/>
<path d="M2176 192 c-3 -5 1 -9 9 -9 8 0 12 4 9 9 -3 4 -7 8 -9 8 -2 0 -6 -4
-9 -8z"/>
<path d="M3136 192 c-3 -5 1 -9 9 -9 8 0 12 4 9 9 -3 4 -7 8 -9 8 -2 0 -6 -4
-9 -8z"/>
<path d="M3306 192 c-3 -5 1 -9 9 -9 8 0 12 4 9 9 -3 4 -7 8 -9 8 -2 0 -6 -4
-9 -8z"/>
<path d="M3250 101 c0 -10 7 -12 26 -10 3 0 12 -8 20 -18 14 -16 14 -16 4 5
-7 13 -14 21 -17 18 -4 -3 -12 -1 -20 5 -9 9 -13 8 -13 0z"/>
<path d="M2947 36 c-4 -10 -1 -13 8 -9 8 3 12 9 9 14 -7 12 -11 11 -17 -5z"/>
<path d="M3075 40 c-3 -5 -1 -10 4 -10 6 0 11 5 11 10 0 6 -2 10 -4 10 -3 0
-8 -4 -11 -10z"/>
<path d="M2039 13 c-12 -16 -12 -17 2 -6 12 10 18 10 29 0 12 -10 12 -9 1 6
-7 9 -15 17 -16 17 -1 0 -9 -8 -16 -17z"/>
<path d="M3020 26 c0 -2 7 -6 15 -10 8 -3 15 -1 15 4 0 6 -7 10 -15 10 -8 0
-15 -2 -15 -4z"/>
</g>
</svg>
