<svg xmlns="http://www.w3.org/2000/svg" width="189.098" height="13.906" viewBox="0 0 189.098 13.906">
  <g id="Group_1253" data-name="Group 1253" transform="translate(-10667.641 -4887.094)">
    <path id="Path_1696" data-name="Path 1696" d="M-81.613,0h1.12V-3.892L-76.419-9.8h-1.288l-3.332,4.9-3.3-4.9h-1.344l4.074,5.922Zm8.19.168a3.75,3.75,0,0,0,3.794-3.78V-3.64a3.711,3.711,0,0,0-3.766-3.752,3.729,3.729,0,0,0-3.78,3.78v.028A3.708,3.708,0,0,0-73.423.168Zm.028-.966a2.715,2.715,0,0,1-2.674-2.814V-3.64a2.671,2.671,0,0,1,2.646-2.8,2.739,2.739,0,0,1,2.688,2.828v.028A2.679,2.679,0,0,1-73.395-.8Zm8.022.952A2.757,2.757,0,0,0-62.9-1.26V0h1.064V-7.238H-62.9v4.144a2.137,2.137,0,0,1-2.17,2.268,1.922,1.922,0,0,1-2-2.184V-7.238h-1.078v4.494A2.651,2.651,0,0,0-65.373.154ZM-59.759,0h1.078V-2.884c0-2.184,1.288-3.318,2.87-3.318h.084V-7.364a3.119,3.119,0,0,0-2.954,2.016v-1.89h-1.078Zm9.2-8.82h1.232v-1.19h-1.232Zm.07,8.82h1.078V-7.238h-1.078Zm3.234,0h1.078V-4.144a2.13,2.13,0,0,1,2.17-2.268,1.922,1.922,0,0,1,2,2.184V0h1.078V-4.494a2.651,2.651,0,0,0-2.772-2.9,2.757,2.757,0,0,0-2.478,1.414v-1.26h-1.078Zm8.68,0H-37.5V-6.286h2.282V-7.21h-2.3V-7.8c0-1.022.42-1.54,1.26-1.54a3.525,3.525,0,0,1,1.05.182v-.938a3.273,3.273,0,0,0-1.19-.182,2.1,2.1,0,0,0-1.554.56,2.518,2.518,0,0,0-.63,1.862v.63h-.994v.938h.994Zm7.546.168a3.75,3.75,0,0,0,3.794-3.78V-3.64A3.711,3.711,0,0,0-31-7.392a3.729,3.729,0,0,0-3.78,3.78v.028A3.708,3.708,0,0,0-31.031.168ZM-31-.8a2.715,2.715,0,0,1-2.674-2.814V-3.64a2.671,2.671,0,0,1,2.646-2.8,2.739,2.739,0,0,1,2.688,2.828v.028A2.679,2.679,0,0,1-31-.8Zm5.362.8h1.078V-2.884c0-2.184,1.288-3.318,2.87-3.318h.084V-7.364a3.119,3.119,0,0,0-2.954,2.016v-1.89h-1.078Zm5.32,0h1.078V-4.13a2.1,2.1,0,0,1,2.016-2.282c1.162,0,1.862.8,1.862,2.156V0H-14.3V-4.172a2.034,2.034,0,0,1,2-2.24c1.176,0,1.876.784,1.876,2.184V0h1.078V-4.48a2.588,2.588,0,0,0-2.688-2.912A2.885,2.885,0,0,0-14.581-5.95,2.438,2.438,0,0,0-16.9-7.392,2.635,2.635,0,0,0-19.243-6.02V-7.238h-1.078ZM-5.243.154A3.152,3.152,0,0,0-2.625-1.092V0h1.036V-4.424a2.879,2.879,0,0,0-.742-2.114,3.176,3.176,0,0,0-2.338-.8,5.747,5.747,0,0,0-2.632.6l.322.882a4.853,4.853,0,0,1,2.2-.532c1.358,0,2.156.672,2.156,1.974v.252a7.685,7.685,0,0,0-2.226-.308c-1.834,0-3.094.826-3.094,2.338V-2.1A2.429,2.429,0,0,0-5.243.154Zm.21-.854c-.966,0-1.82-.532-1.82-1.442V-2.17c0-.91.756-1.5,2.114-1.5a7.55,7.55,0,0,1,2.128.308v.7A2.18,2.18,0,0,1-5.033-.7ZM2.709.126a2.561,2.561,0,0,0,1.3-.308v-.924a2.228,2.228,0,0,1-1.05.252,1.065,1.065,0,0,1-1.218-1.2V-6.286h2.3v-.952h-2.3V-9.422H.665v2.184H-.343v.952H.665v4.368A1.837,1.837,0,0,0,2.709.126ZM5.621-8.82H6.853v-1.19H5.621ZM5.691,0H6.769V-7.238H5.691Zm6.538.168a3.75,3.75,0,0,0,3.794-3.78V-3.64a3.711,3.711,0,0,0-3.766-3.752,3.729,3.729,0,0,0-3.78,3.78v.028A3.708,3.708,0,0,0,12.229.168ZM12.257-.8A2.715,2.715,0,0,1,9.583-3.612V-3.64a2.671,2.671,0,0,1,2.646-2.8,2.739,2.739,0,0,1,2.688,2.828v.028A2.679,2.679,0,0,1,12.257-.8Zm5.362.8H18.7V-4.144a2.13,2.13,0,0,1,2.17-2.268,1.922,1.922,0,0,1,2,2.184V0h1.078V-4.494a2.651,2.651,0,0,0-2.772-2.9A2.757,2.757,0,0,0,18.7-5.978v-1.26H17.619ZM29.771-8.82H31v-1.19H29.771ZM29.841,0h1.078V-7.238H29.841Zm5.628.14c1.442,0,2.576-.8,2.576-2.17v-.028c0-1.3-1.2-1.736-2.324-2.072-.966-.294-1.862-.56-1.862-1.246V-5.4c0-.6.546-1.05,1.4-1.05a4.053,4.053,0,0,1,2.142.7l.49-.812a4.91,4.91,0,0,0-2.6-.8,2.19,2.19,0,0,0-2.464,2.072v.028c0,1.344,1.274,1.708,2.394,2.044.952.266,1.806.56,1.806,1.274v.028c0,.714-.616,1.148-1.5,1.148a4.141,4.141,0,0,1-2.506-.924l-.546.77A4.978,4.978,0,0,0,35.469.14Zm10.472,0c1.442,0,2.576-.8,2.576-2.17v-.028c0-1.3-1.2-1.736-2.324-2.072-.966-.294-1.862-.56-1.862-1.246V-5.4c0-.6.546-1.05,1.4-1.05a4.053,4.053,0,0,1,2.142.7l.49-.812a4.91,4.91,0,0,0-2.6-.8A2.19,2.19,0,0,0,43.3-5.292v.028c0,1.344,1.274,1.708,2.394,2.044.952.266,1.806.56,1.806,1.274v.028C47.5-1.2,46.879-.77,46-.77a4.141,4.141,0,0,1-2.506-.924l-.546.77A4.978,4.978,0,0,0,45.941.14Zm7.392.028A3.675,3.675,0,0,0,56.315-1.19l-.672-.6A3,3,0,0,1,53.361-.77a2.528,2.528,0,0,1-2.548-2.45h5.74a2.7,2.7,0,0,0,.014-.35c0-2.114-1.232-3.822-3.374-3.822a3.562,3.562,0,0,0-3.472,3.766V-3.6A3.606,3.606,0,0,0,53.333.168Zm-2.52-4.186a2.505,2.505,0,0,1,2.352-2.464,2.383,2.383,0,0,1,2.31,2.464ZM61.369.168a3.688,3.688,0,0,0,2.954-1.4l-.686-.644A2.963,2.963,0,0,1,61.425-.8a2.7,2.7,0,0,1-2.66-2.814V-3.64a2.663,2.663,0,0,1,2.59-2.8,2.9,2.9,0,0,1,2.2,1.092l.714-.756a3.709,3.709,0,0,0-2.9-1.288,3.714,3.714,0,0,0-3.71,3.78v.028A3.707,3.707,0,0,0,61.369.168ZM68.355.154A2.757,2.757,0,0,0,70.833-1.26V0H71.9V-7.238H70.833v4.144a2.137,2.137,0,0,1-2.17,2.268,1.922,1.922,0,0,1-2-2.184V-7.238H65.583v4.494A2.651,2.651,0,0,0,68.355.154ZM73.969,0h1.078V-2.884c0-2.184,1.288-3.318,2.87-3.318H78V-7.364a3.119,3.119,0,0,0-2.954,2.016v-1.89H73.969Zm8.176.168A3.675,3.675,0,0,0,85.127-1.19l-.672-.6A3,3,0,0,1,82.173-.77a2.528,2.528,0,0,1-2.548-2.45h5.74a2.7,2.7,0,0,0,.014-.35c0-2.114-1.232-3.822-3.374-3.822a3.562,3.562,0,0,0-3.472,3.766V-3.6A3.606,3.606,0,0,0,82.145.168Zm-2.52-4.186a2.505,2.505,0,0,1,2.352-2.464,2.383,2.383,0,0,1,2.31,2.464Z" transform="translate(10771.359 4900)" fill="#0c1e55"/>
    <path id="Icon_awesome-lock" data-name="Icon awesome-lock" d="M10.864,6.084h-.652V4.128a4.128,4.128,0,0,0-8.257,0V6.084H1.3A1.3,1.3,0,0,0,0,7.388V12.6a1.3,1.3,0,0,0,1.3,1.3h9.561a1.3,1.3,0,0,0,1.3-1.3V7.388A1.3,1.3,0,0,0,10.864,6.084Zm-2.825,0H4.128V4.128a1.956,1.956,0,0,1,3.911,0Z" transform="translate(10667.641 4887.094)"/>
  </g>
</svg>
