<svg xmlns="http://www.w3.org/2000/svg" width="159.802" height="37.139" viewBox="0 0 159.802 37.139">
  <g id="Group_1260" data-name="Group 1260" transform="translate(-55.076 -10962.304)">
    <g id="Group_1" data-name="Group 1" transform="translate(55 10959.592)">
      <path id="Path_1696" data-name="Path 1696" d="M-72.239-7.632c-1.7,5.406-2.226,6.042-4.77,6.307l-1.643.159A.885.885,0,0,0-78.6.159C-76.532.053-74.73,0-72.61,0c2.279,0,4.134.053,7.208.159a.983.983,0,0,0,.212-1.325l-2.067-.159c-2.7-.212-2.491-1.378-1.007-6.307l2.332-7.632c.424-1.325.53-1.484,1.7-1.484h3.922c4.346,0,5.512.583,5.459,2.332l-.053,2.014a1.047,1.047,0,0,0,1.378,0,39.592,39.592,0,0,1,1.378-5.3c.636-1.961,1.431-4.081,1.8-5.035-.106-.371-1.113-.424-1.378-.106l-.9,1.643c-1.219,2.226-2.226,2.6-7.261,2.6h-3.657c-1.113,0-1.219-.212-.848-1.325l3.657-11.607c.53-1.643.53-1.8,2.014-1.8h2.915a22.853,22.853,0,0,1,5.618.477c2.332.636,2.173,1.961,1.855,4.717a.849.849,0,0,0,1.325.053c.53-1.908,1.8-6.148,2.173-7.049-1.537.159-4.081.159-7.473.159h-9.858c-2.173,0-3.975-.053-5.724-.159a.842.842,0,0,0-.318,1.325l.954.212c2.862.636,2.809,1.272,1.219,6.254Zm21.995,6.466A1.258,1.258,0,0,0-50.032.265a1.175,1.175,0,0,0,.848.477c3.657,0,9.116-4.77,9.911-6.307a.837.837,0,0,0-.8-.9c-1.8,2.067-4.611,3.922-5.512,3.922-.424,0-.371-.636-.159-1.166l6.307-15.052c.636-1.537.636-2.014.318-2.332-.212-.212-.477-.53-.848-.53-1.749,0-5.83,1.961-8.745,5.3a.751.751,0,0,0,.689.9c2.65-2.173,4.028-2.809,4.4-2.809s.371.424.106,1.007Zm11.236-31.376c-2.067,0-2.809,2.173-2.809,3.339a1.8,1.8,0,0,0,1.855,1.961c1.59,0,2.756-1.643,2.756-3.286C-37.206-31.694-37.789-32.542-39.008-32.542Zm9.434,10.918c-2.544,0-4.558,2.226-6.254,5.088-.053.636.318.954.848.848.954-1.272,2.385-2.756,3.763-2.756.477,0,.583.53.424,1.113-1.431,5.194-4.77,14.575-5.459,16.695C-36.623.53-35.086.742-34.5.742a.951.951,0,0,0,.9-.636c2.809-6.095,5.777-12.561,9.01-16.695.8-1.06,1.378-1.59,1.855-1.59.53,0,.848.689,1.113,2.067.212,1.113,1.06,1.06,1.7.265a6.581,6.581,0,0,0,1.113-3.18c0-.8-.265-2.6-2.12-2.6-1.325,0-2.65,1.166-3.869,2.756a79.569,79.569,0,0,0-5.565,8.957h-.265l2.279-6.678C-27.878-18.02-26.924-21.624-29.574-21.624Zm22.26,0c-1.537,0-3.6.424-6.36,2.544-5.777,4.452-7.9,10.918-7.9,14.257,0,2.6,1.113,5.565,4.293,5.565,2.226,0,5.247-.848,8.48-4.823a.711.711,0,0,0-.689-.9c-2.332,2.014-3.657,3.074-5.565,3.074-1.431,0-2.544-1.219-2.544-3.021a13.339,13.339,0,0,1,.742-4.717c7.632-2.12,12.879-4.77,12.879-8.8A3.323,3.323,0,0,0-7.314-21.624Zm-1.06,1.643a1.13,1.13,0,0,1,1.219,1.219,5.982,5.982,0,0,1-2.067,3.6,15.4,15.4,0,0,1-7.1,3.922,21.094,21.094,0,0,1,3.922-6.2C-10.494-19.5-9.116-19.981-8.374-19.981ZM35.934-7.632c-1.7,5.406-2.226,6.042-4.77,6.307l-1.643.159A.885.885,0,0,0,29.574.159C31.694.053,33.5,0,35.669,0c2.279,0,4.081.053,6.678.159a.983.983,0,0,0,.212-1.325l-1.643-.159c-2.7-.265-2.544-1.378-1.007-6.307l6.2-19.716c1.643-5.247,1.855-5.777,4.929-6.254l1.431-.212a.849.849,0,0,0,0-1.325c-2.544.106-4.187.159-6.36.159-2.226,0-4.028-.053-6.148-.159a.842.842,0,0,0-.318,1.325l1.272.212c2.915.477,2.809,1.272,1.219,6.254ZM60.367-21.624a10.28,10.28,0,0,0-6.89,3.074c-4.664,4.187-6.731,10.229-6.731,13.674,0,4.081,1.908,5.618,3.975,5.618,3.339,0,6.678-2.279,8.745-4.982a.645.645,0,0,0-.689-.9C56.763-3.286,54.8-1.908,53.053-1.908c-1.272,0-2.385-.8-2.279-3.445a22.794,22.794,0,0,1,3.551-10.971c1.643-2.438,3.286-3.551,4.452-3.551,1.749,0,1.7,1.59,1.855,2.915a1.036,1.036,0,0,0,1.06.954,2.548,2.548,0,0,0,2.6-2.491C64.289-20.14,63.017-21.624,60.367-21.624Zm17.172,0c-1.537,0-3.6.424-6.36,2.544-5.777,4.452-7.9,10.918-7.9,14.257,0,2.6,1.113,5.565,4.293,5.565,2.226,0,5.247-.848,8.48-4.823a.711.711,0,0,0-.689-.9C73.034-2.968,71.709-1.908,69.8-1.908c-1.431,0-2.544-1.219-2.544-3.021A13.339,13.339,0,0,1,68-9.646c7.632-2.12,12.879-4.77,12.879-8.8A3.323,3.323,0,0,0,77.539-21.624Zm-1.06,1.643A1.13,1.13,0,0,1,77.7-18.762a5.982,5.982,0,0,1-2.067,3.6,15.4,15.4,0,0,1-7.1,3.922,21.094,21.094,0,0,1,3.922-6.2C74.359-19.5,75.737-19.981,76.479-19.981Z" transform="translate(79 37.852)" fill="#013f7b"/>
      <g id="Ellipse_2" data-name="Ellipse 2" transform="translate(81 16.851)" fill="#013f7b" stroke="#707070" stroke-width="1" opacity="0.267">
        <circle cx="10.5" cy="10.5" r="10.5" stroke="none"/>
        <circle cx="10.5" cy="10.5" r="10" fill="none"/>
      </g>
    </g>
    <circle id="Ellipse_357" data-name="Ellipse 357" cx="13.5" cy="13.5" r="13.5" transform="translate(134 10972.443)" fill="#da3882"/>
    <path id="Path_1695" data-name="Path 1695" d="M-2.04.336A7.99,7.99,0,0,0,3.72-2.28,10.21,10.21,0,0,0,6.168-7.464c.048-.456.1-1.608.1-2.04A10.962,10.962,0,0,1,7.92-7.8a.377.377,0,0,0,.576.144,6.111,6.111,0,0,1,1.8-.6.984.984,0,0,0,.624-.24,1.6,1.6,0,0,0,.456-1.128c0-.624-.24-1.344-.888-1.344a.727.727,0,0,0-.768.6,2.047,2.047,0,0,0,.1.36,1.833,1.833,0,0,1,.1.6c0,.408-.24.744-.48.744-.432,0-.5-.12-1.056-.624C7.2-10.344,6.5-11.16,5.184-11.16a4.283,4.283,0,0,0-2.376.984A3.909,3.909,0,0,0,1.176-7.488a.962.962,0,0,0,1.032.96A.707.707,0,0,0,3-7.2a3.851,3.851,0,0,0-.168-.672,3.772,3.772,0,0,1-.192-.792A1.846,1.846,0,0,1,4.392-10.2a1.992,1.992,0,0,1,1.248.408,9.641,9.641,0,0,1-1.3,4.848A7.069,7.069,0,0,1-1.488-1.032a3.961,3.961,0,0,1-4.248-4.1v-.192a75.645,75.645,0,0,0,8.52-6.72c2.232-2.184,3.024-3.672,3.024-4.92,0-.936-.552-1.272-1.1-1.272a.951.951,0,0,0-.96.984c0,.264.072.336.264.528a.952.952,0,0,1,.288.72,4.242,4.242,0,0,1-.864,2.016A26.688,26.688,0,0,1,.048-10.56,1.556,1.556,0,0,0-1.464-11.5,5.292,5.292,0,0,0-5.04-9.624a7.4,7.4,0,0,0-2.3,5.16C-7.344-1.992-5.832.336-2.04.336ZM-5.688-6.24a6.537,6.537,0,0,1,1.3-2.952,2.981,2.981,0,0,1,1.848-1.3.731.731,0,0,1,.792.744c0,.048,0,.36-.024.576A47.9,47.9,0,0,1-5.688-6.24Z" transform="translate(146 10994.443)" fill="#fff"/>
  </g>
</svg>
