<svg xmlns="http://www.w3.org/2000/svg" width="296.55" height="21.789" viewBox="0 0 296.55 21.789">
  <g id="Group_1237" data-name="Group 1237" transform="translate(-1143.564 -275.59)">
    <path id="Path_4" data-name="Path 4" d="M-67.336-1.677h5.487V0h-7.587V-12.086h2.1Zm17.42-1.137H-54.6L-55.577,0H-57.76l4.565-12.086h1.884L-46.737,0h-2.191Zm-4.092-1.693h3.5l-1.751-5.014ZM-35.65-3.113a1.459,1.459,0,0,0-.56-1.229,6.741,6.741,0,0,0-2.021-.872,9.76,9.76,0,0,1-2.324-.979A3.1,3.1,0,0,1-42.208-8.9a2.945,2.945,0,0,1,1.191-2.407,4.821,4.821,0,0,1,3.092-.946,5.223,5.223,0,0,1,2.25.465,3.692,3.692,0,0,1,1.552,1.324,3.4,3.4,0,0,1,.564,1.905H-35.65a1.894,1.894,0,0,0-.594-1.482,2.45,2.45,0,0,0-1.7-.535,2.558,2.558,0,0,0-1.6.44,1.465,1.465,0,0,0-.569,1.229A1.325,1.325,0,0,0-39.493-7.8a7.076,7.076,0,0,0,2.025.863,9.317,9.317,0,0,1,2.266.955,3.6,3.6,0,0,1,1.253,1.229,3.2,3.2,0,0,1,.4,1.623,2.876,2.876,0,0,1-1.158,2.4A5.023,5.023,0,0,1-37.85.166,5.9,5.9,0,0,1-40.261-.32a4.051,4.051,0,0,1-1.71-1.341,3.341,3.341,0,0,1-.61-1.992h2.1A1.955,1.955,0,0,0-39.8-2.059a2.981,2.981,0,0,0,1.951.564A2.59,2.59,0,0,0-36.2-1.938,1.433,1.433,0,0,0-35.65-3.113Zm16.075-7.28h-3.769V0h-2.083V-10.393h-3.735v-1.693h9.587Zm6.446,6.068h-4.358V-5.952h4.358Zm7.982-7.761L-1.66-2.822l3.478-9.264H4.532V0H2.44V-3.984l.208-5.329L-.921,0h-1.5L-5.985-9.305l.208,5.321V0H-7.869V-12.086ZM12.63,0H10.539V-12.086H12.63ZM28.2,0H26.1L20.712-8.575V0h-2.1V-12.086h2.1l5.4,8.608v-8.608H28.2ZM42.922-12.086v8.077A3.925,3.925,0,0,1,41.689-.959,4.682,4.682,0,0,1,38.406.166a4.716,4.716,0,0,1-3.3-1.108,3.944,3.944,0,0,1-1.22-3.075v-8.068h2.092V-4A2.568,2.568,0,0,0,36.6-2.15a2.4,2.4,0,0,0,1.81.639q2.424,0,2.424-2.557v-8.019ZM57.3-10.393H53.527V0H51.443V-10.393H47.708v-1.693H57.3Zm12.049,5H64.381v3.719h5.8V0h-7.9V-12.086h7.844v1.693H64.381v3.337h4.964Z" transform="translate(1213 293)" fill="#092d43"/>
    <path id="Icon_ionic-ios-flash" data-name="Icon ionic-ios-flash" d="M21.067,11.584H15.806L18.354,2.5A.2.2,0,0,0,18,2.331L9.072,14.044a.41.41,0,0,0,.306.652h5.261l-2.548,9.087a.2.2,0,0,0,.35.165L21.373,12.24A.415.415,0,0,0,21.067,11.584Z" transform="translate(1280.279 273.345)" fill="#092d43"/>
    <path id="Path_3" data-name="Path 3" d="M-53.727-6.514h-6.166L-61.026,0h-3.841l2.83-16.352H-51.4l-.528,3.043h-6.783l-.651,3.762H-53.2Zm5.537,3.481h6.66L-42.058,0h-10.5l2.83-16.352h3.852Zm17.654-.022h-5.222L-37.207,0H-41.44l8.659-16.352h3.616L-26.145,0h-4ZM-34.32-6.1h3.392l-.719-5.638Zm18.474,1.673q.247-1.269-1.37-1.965l-1.842-.764q-3.875-1.741-3.684-4.739a4.183,4.183,0,0,1,.943-2.443A5.6,5.6,0,0,1-19.406-16a8.8,8.8,0,0,1,3.335-.573,5.672,5.672,0,0,1,3.9,1.415,4.7,4.7,0,0,1,1.454,3.672h-3.818a2.288,2.288,0,0,0-.4-1.51,1.727,1.727,0,0,0-1.421-.59,2.977,2.977,0,0,0-1.707.449,1.822,1.822,0,0,0-.876,1.269q-.213,1.123,1.668,1.842a18.339,18.339,0,0,1,2.735,1.235,4.516,4.516,0,0,1,2.516,4.335,4.439,4.439,0,0,1-.91,2.482A5.259,5.259,0,0,1-15.2-.326a8.4,8.4,0,0,1-3.262.562A7.876,7.876,0,0,1-20.922-.18a5.412,5.412,0,0,1-1.943-1.146,4.976,4.976,0,0,1-1.572-3.987l3.852.011A2.637,2.637,0,0,0-20.1-3.4a2.32,2.32,0,0,0,1.853.646A2.781,2.781,0,0,0-16.638-3.2,1.842,1.842,0,0,0-15.846-4.425ZM2.527,0H-1.292L-.112-6.828h-5.6L-6.907,0h-3.841l2.83-16.352h3.852L-5.2-9.86H.416l1.123-6.491h3.83ZM19.7-4.425q.247-1.269-1.37-1.965l-1.842-.764Q12.612-8.895,12.8-11.893a4.184,4.184,0,0,1,.943-2.443A5.6,5.6,0,0,1,16.138-16a8.8,8.8,0,0,1,3.335-.573,5.672,5.672,0,0,1,3.9,1.415,4.7,4.7,0,0,1,1.454,3.672H21.012a2.288,2.288,0,0,0-.4-1.51,1.727,1.727,0,0,0-1.421-.59,2.977,2.977,0,0,0-1.707.449,1.822,1.822,0,0,0-.876,1.269q-.213,1.123,1.668,1.842a18.339,18.339,0,0,1,2.735,1.235,4.516,4.516,0,0,1,2.516,4.335,4.439,4.439,0,0,1-.91,2.482A5.258,5.258,0,0,1,20.344-.326a8.4,8.4,0,0,1-3.262.562A7.876,7.876,0,0,1,14.622-.18a5.412,5.412,0,0,1-1.943-1.146,4.976,4.976,0,0,1-1.572-3.987l3.852.011a2.637,2.637,0,0,0,.483,1.9,2.32,2.32,0,0,0,1.853.646A2.781,2.781,0,0,0,18.906-3.2,1.842,1.842,0,0,0,19.7-4.425Zm14.7,1.37H29.177L27.728,0H23.494l8.659-16.352h3.616L38.79,0h-4ZM30.614-6.1h3.392l-.719-5.638ZM44.473-3.032h6.66L50.6,0H40.1l2.83-16.352h3.852Zm18.9-3.9H57.365l-.685,3.9h7.109L63.261,0H52.312l2.83-16.352H66.114l-.528,3.043h-7.12L57.859-9.86h6.02Z" transform="translate(1374 294)" fill="#092d43"/>
  </g>
</svg>
