<svg xmlns="http://www.w3.org/2000/svg" xmlns:xlink="http://www.w3.org/1999/xlink" width="163" height="146" viewBox="0 0 163 146">
  <defs>
    <filter id="Rectangle_3576" x="0" y="0" width="163" height="146" filterUnits="userSpaceOnUse">
      <feOffset dy="3" input="SourceAlpha"/>
      <feGaussianBlur stdDeviation="3" result="blur"/>
      <feFlood flood-opacity="0.161"/>
      <feComposite operator="in" in2="blur"/>
      <feComposite in="SourceGraphic"/>
    </filter>
  </defs>
  <g id="Group_1235" data-name="Group 1235" transform="translate(-923 -704)">
    <g transform="matrix(1, 0, 0, 1, 923, 704)" filter="url(#Rectangle_3576)">
      <path id="Rectangle_3576-2" data-name="Rectangle 3576" d="M64,0h81a0,0,0,0,1,0,0V128a0,0,0,0,1,0,0H64A64,64,0,0,1,0,64v0A64,64,0,0,1,64,0Z" transform="translate(9 6)" fill="#e23a87"/>
    </g>
    <path id="Path_6" data-name="Path 6" d="M-47.538,0h7.372V-9.5h12.578v-6.118H-40.166V-20.14h13.908V-26.6h-21.28Zm23.674,0h7.372V-8.056h3.23L-7.9,0H.608L-5.738-9.272a8.412,8.412,0,0,0,5.472-8.17v-.076a8.247,8.247,0,0,0-2.356-6.194c-1.786-1.824-4.6-2.888-8.664-2.888H-23.864Zm7.372-13.832v-6.384h4.826c2.47,0,3.99,1.064,3.99,3.154v.076c0,1.938-1.444,3.154-3.952,3.154ZM2.508,0H24.092V-6.27H9.8v-4.218H22.572V-16.3H9.8V-20.33H23.9V-26.6H2.508ZM26.9,0H48.488V-6.27H34.2v-4.218H46.968V-16.3H34.2V-20.33H48.3V-26.6H26.9Z" transform="translate(1014 754)" fill="#fff"/>
    <path id="Path_5" data-name="Path 5" d="M-36.72.42a10.59,10.59,0,0,0,9.3-4.74L-31.8-7.44a5.735,5.735,0,0,1-4.74,2.55c-2.94,0-5.01-2.46-5.01-5.61v-.06c0-3.06,2.07-5.55,5.01-5.55a5.623,5.623,0,0,1,4.59,2.46l4.38-3.39a10.282,10.282,0,0,0-8.91-4.38A10.788,10.788,0,0,0-47.55-10.5v.06A10.664,10.664,0,0,0-36.72.42ZM-27.54,0h6.12l1.5-3.75h8.1L-10.29,0h6.24l-8.94-21.15H-18.6Zm9.33-8.28,2.37-5.97,2.34,5.97ZM-2.76,0H8.07c5.01,0,7.95-2.19,7.95-5.79v-.06c0-2.85-1.62-4.29-4.17-5.13a4.861,4.861,0,0,0,3.24-4.68v-.06a4.605,4.605,0,0,0-1.35-3.39C12.51-20.34,10.65-21,8.01-21H-2.76ZM2.91-12.63v-3.69H6.69c1.74,0,2.64.66,2.64,1.8v.06c0,1.23-.99,1.83-2.76,1.83Zm0,7.95V-8.55H7.35c1.95,0,2.85.75,2.85,1.89v.06c0,1.23-1.02,1.92-2.79,1.92ZM18.06,0h5.85V-21H18.06ZM27,0h5.76V-11.52L41.73,0h5.1V-21H41.07V-9.9L32.43-21H27Z" transform="translate(1014 801)" fill="#fff"/>
    <path id="Path_4" data-name="Path 4" d="M-46.179,0h6.859c3.173,0,5.035-1.387,5.035-3.667V-3.7c0-1.8-1.026-2.717-2.641-3.249a3.078,3.078,0,0,0,2.052-2.964v-.038a2.917,2.917,0,0,0-.855-2.147,4.9,4.9,0,0,0-3.629-1.2h-6.821Zm3.591-8v-2.337h2.394c1.1,0,1.672.418,1.672,1.14v.038c0,.779-.627,1.159-1.748,1.159Zm0,5.035V-5.415h2.812c1.235,0,1.805.475,1.805,1.2v.038c0,.779-.646,1.216-1.767,1.216ZM-34.133,0h3.876l.95-2.375h5.13L-23.208,0h3.952l-5.662-13.395h-3.553Zm5.909-5.244,1.5-3.781,1.482,3.781ZM-18.439,0H-8.312V-3.23h-6.441V-13.3h-3.686ZM-1.567.266a6.707,6.707,0,0,0,5.89-3L1.549-4.712a3.632,3.632,0,0,1-3,1.615A3.29,3.29,0,0,1-4.626-6.65v-.038A3.289,3.289,0,0,1-1.453-10.2,3.561,3.561,0,0,1,1.454-8.645l2.774-2.147a6.512,6.512,0,0,0-5.643-2.774A6.832,6.832,0,0,0-8.426-6.65v.038A6.754,6.754,0,0,0-1.567.266Zm13.3,0A6.967,6.967,0,0,0,18.915-6.65v-.038a6.9,6.9,0,0,0-7.144-6.878A6.967,6.967,0,0,0,4.589-6.65v.038A6.9,6.9,0,0,0,11.733.266Zm.038-3.325A3.453,3.453,0,0,1,8.37-6.65v-.038a3.389,3.389,0,0,1,3.363-3.553,3.456,3.456,0,0,1,3.42,3.591v.038A3.393,3.393,0,0,1,11.771-3.059ZM20.359,0h3.648V-7.3L29.688,0h3.23V-13.3H29.27v7.03L23.8-13.3H20.359ZM38.636,0h3.705V-5.035L47.4-13.3H43.272L40.517-8.455,37.781-13.3h-4.2l5.054,8.322Z" transform="translate(1014 773)" fill="#fff"/>
    <path id="Path_3" data-name="Path 3" d="M-43,.16a5.809,5.809,0,0,1-4.36-1.6,6.322,6.322,0,0,1-1.56-4.6V-14h2v7.88q0,4.5,3.94,4.5a3.793,3.793,0,0,0,2.94-1.11,4.873,4.873,0,0,0,1.02-3.39V-14h1.94v7.96a6.315,6.315,0,0,1-1.56,4.61A5.83,5.83,0,0,1-43,.16ZM-28.02-14a6.486,6.486,0,0,1,4.28,1.3,4.409,4.409,0,0,1,1.56,3.58,4.409,4.409,0,0,1-1.56,3.58,6.486,6.486,0,0,1-4.28,1.3h-3.46V0h-2V-14Zm-.06,8.02a4.514,4.514,0,0,0,2.9-.81,2.825,2.825,0,0,0,1-2.33,2.825,2.825,0,0,0-1-2.33,4.514,4.514,0,0,0-2.9-.81h-3.4v6.28Zm18.24-1.1h1.92v5.46A7.454,7.454,0,0,1-10.34-.3a9.047,9.047,0,0,1-2.88.46,7.827,7.827,0,0,1-3.82-.93,6.9,6.9,0,0,1-2.67-2.56A7.039,7.039,0,0,1-20.68-7a7.091,7.091,0,0,1,.97-3.68,6.785,6.785,0,0,1,2.68-2.56,8,8,0,0,1,3.85-.92,8.12,8.12,0,0,1,3.05.55A6.226,6.226,0,0,1-7.8-12l-1.24,1.24a5.636,5.636,0,0,0-4.06-1.62,5.913,5.913,0,0,0-2.87.69,5.058,5.058,0,0,0-1.99,1.92A5.381,5.381,0,0,0-18.68-7a5.342,5.342,0,0,0,.72,2.75,5.129,5.129,0,0,0,1.99,1.93,5.8,5.8,0,0,0,2.85.7,5.932,5.932,0,0,0,3.28-.9ZM4.76,0,1.74-4.3q-.56.04-.88.04H-2.6V0h-2V-14H.86a6.486,6.486,0,0,1,4.28,1.3A4.409,4.409,0,0,1,6.7-9.12a4.683,4.683,0,0,1-.8,2.76A4.52,4.52,0,0,1,3.62-4.7L6.94,0ZM.8-5.96a4.474,4.474,0,0,0,2.9-.82,2.854,2.854,0,0,0,1-2.34,2.825,2.825,0,0,0-1-2.33,4.514,4.514,0,0,0-2.9-.81H-2.6v6.3ZM18.36-3.5H10.92L9.38,0H7.32l6.34-14h1.98L22,0H19.9Zm-.7-1.6-3.02-6.86L11.62-5.1ZM23.58-14h5.9a8.53,8.53,0,0,1,3.94.88,6.465,6.465,0,0,1,2.67,2.47A6.978,6.978,0,0,1,37.04-7a6.978,6.978,0,0,1-.95,3.65A6.465,6.465,0,0,1,33.42-.88,8.53,8.53,0,0,1,29.48,0h-5.9ZM29.36-1.74a6.477,6.477,0,0,0,2.99-.66,4.771,4.771,0,0,0,1.99-1.85A5.322,5.322,0,0,0,35.04-7a5.322,5.322,0,0,0-.7-2.75,4.771,4.771,0,0,0-1.99-1.85,6.477,6.477,0,0,0-2.99-.66H25.58V-1.74Zm20.4,0V0H39.6V-14h9.88v1.74H41.6v4.3h7.02v1.7H41.6v4.52Z" transform="translate(1014 820)" fill="#fff"/>
  </g>
</svg>
