<svg xmlns="http://www.w3.org/2000/svg" width="12.5" height="14.286" viewBox="0 0 12.5 14.286">
  <path id="Icon_awesome-calendar-alt" data-name="Icon awesome-calendar-alt" d="M0,12.946a1.34,1.34,0,0,0,1.339,1.339h9.821A1.34,1.34,0,0,0,12.5,12.946V5.357H0ZM8.929,7.478a.336.336,0,0,1,.335-.335h1.116a.336.336,0,0,1,.335.335V8.594a.336.336,0,0,1-.335.335H9.263a.336.336,0,0,1-.335-.335Zm0,3.571a.336.336,0,0,1,.335-.335h1.116a.336.336,0,0,1,.335.335v1.116a.336.336,0,0,1-.335.335H9.263a.336.336,0,0,1-.335-.335ZM5.357,7.478a.336.336,0,0,1,.335-.335H6.808a.336.336,0,0,1,.335.335V8.594a.336.336,0,0,1-.335.335H5.692a.336.336,0,0,1-.335-.335Zm0,3.571a.336.336,0,0,1,.335-.335H6.808a.336.336,0,0,1,.335.335v1.116a.336.336,0,0,1-.335.335H5.692a.336.336,0,0,1-.335-.335ZM1.786,7.478a.336.336,0,0,1,.335-.335H3.237a.336.336,0,0,1,.335.335V8.594a.336.336,0,0,1-.335.335H2.121a.336.336,0,0,1-.335-.335Zm0,3.571a.336.336,0,0,1,.335-.335H3.237a.336.336,0,0,1,.335.335v1.116a.336.336,0,0,1-.335.335H2.121a.336.336,0,0,1-.335-.335Zm9.375-9.263H9.821V.446A.448.448,0,0,0,9.375,0H8.482a.448.448,0,0,0-.446.446V1.786H4.464V.446A.448.448,0,0,0,4.018,0H3.125a.448.448,0,0,0-.446.446V1.786H1.339A1.34,1.34,0,0,0,0,3.125V4.464H12.5V3.125A1.34,1.34,0,0,0,11.161,1.786Z"/>
</svg>
