<svg id="Group_4742" data-name="Group 4742" xmlns="http://www.w3.org/2000/svg" xmlns:xlink="http://www.w3.org/1999/xlink" width="13.93" height="26.339" viewBox="0 0 13.93 26.339">
  <defs>
    <clipPath id="clip-path">
      <rect id="Rectangle_4223" data-name="Rectangle 4223" width="13.93" height="26.339" fill="none"/>
    </clipPath>
  </defs>
  <g id="Group_4738" data-name="Group 4738" clip-path="url(#clip-path)">
    <path id="Path_1702" data-name="Path 1702" d="M11.5,26.339a2.434,2.434,0,0,0,2.431-2.432V2.432A2.434,2.434,0,0,0,11.5,0H2.432A2.434,2.434,0,0,0,0,2.432V23.907a2.434,2.434,0,0,0,2.432,2.432ZM6.965,24.681A1.245,1.245,0,1,1,8.21,23.436a1.245,1.245,0,0,1-1.245,1.245M1.582,20.605V2.884a.334.334,0,0,1,.334-.334h10.1a.334.334,0,0,1,.334.334V20.605a.334.334,0,0,1-.334.334H1.916a.335.335,0,0,1-.334-.334" fill="#fff"/>
    <rect id="Rectangle_4222" data-name="Rectangle 4222" width="0.848" height="0.849" transform="translate(6.541 23.011)" fill="#fff"/>
  </g>
</svg>
